<mxfile host="app.diagrams.net" modified="2023-05-12T05:56:48.298Z" agent="Mozilla/5.0 (Windows NT 10.0; Win64; x64) AppleWebKit/537.36 (KHTML, like Gecko) Chrome/113.0.0.0 Safari/537.36" etag="l94zpv8yhBIYJKulhLPl" version="21.2.9" type="github">
  <diagram name="第 1 页" id="bAZPB5xpADVbcvGAZvzh">
    <mxGraphModel dx="1195" dy="1806" grid="1" gridSize="10" guides="1" tooltips="1" connect="1" arrows="1" fold="1" page="1" pageScale="1" pageWidth="827" pageHeight="1169" math="0" shadow="0">
      <root>
        <mxCell id="0" />
        <mxCell id="1" value="流程" style="" parent="0" />
        <mxCell id="BrXWf49stTwVFbA3RTFC-7" value="" style="edgeStyle=orthogonalEdgeStyle;rounded=0;orthogonalLoop=1;jettySize=auto;html=1;" edge="1" parent="1" source="BrXWf49stTwVFbA3RTFC-1" target="BrXWf49stTwVFbA3RTFC-6">
          <mxGeometry relative="1" as="geometry" />
        </mxCell>
        <mxCell id="BrXWf49stTwVFbA3RTFC-1" value="&lt;div style=&quot;text-align: left;&quot;&gt;訂閱Topic&lt;br&gt;&lt;span style=&quot;background-color: initial;&quot;&gt;&lt;br&gt;&lt;/span&gt;&lt;/div&gt;&lt;div style=&quot;text-align: left;&quot;&gt;&lt;span style=&quot;background-color: initial;&quot;&gt;ww_hcm_wa_employeeinfo_g1&lt;/span&gt;&lt;br&gt;&lt;/div&gt;&lt;span style=&quot;accent-color: auto; place-content: normal; place-items: normal; place-self: auto; alignment-baseline: auto; animation: 0s ease 0s 1 normal none running none; animation-composition: replace; app-region: none; appearance: none; aspect-ratio: auto; backdrop-filter: none; backface-visibility: visible; background: none 0% 0% / auto repeat scroll padding-box border-box rgba(0, 0, 0, 0); background-blend-mode: normal; baseline-shift: 0px; baseline-source: auto; border-image: none 100% / 1 / 0 stretch; border-color: rgb(0, 0, 0); border-collapse: separate; border-end-end-radius: 0px; border-end-start-radius: 0px; border-width: 0px; border-style: none; border-spacing: 0px; border-start-end-radius: 0px; border-start-start-radius: 0px; border-radius: 0px; inset: auto; box-shadow: none; box-sizing: content-box; break-after: auto; break-before: auto; break-inside: auto; buffered-rendering: auto; caption-side: top; caret-color: rgb(0, 0, 0); clear: none; clip: auto; clip-path: none; clip-rule: nonzero; color: rgb(0, 0, 0); color-interpolation: srgb; color-interpolation-filters: linearrgb; color-rendering: auto; color-scheme: normal; columns: auto; column-fill: balance; gap: normal; column-rule: 0px none rgb(0, 0, 0); column-span: none; contain: none; contain-intrinsic-block-size: none; contain-intrinsic-size: none; contain-intrinsic-inline-size: none; container: none; content: normal; content-visibility: visible; counter-increment: none; counter-reset: none; counter-set: none; cursor: text; cx: 0px; cy: 0px; d: none; direction: ltr; display: inline; dominant-baseline: auto; empty-cells: show; fill: rgb(0, 0, 0); fill-opacity: 1; fill-rule: nonzero; filter: none; flex: 0 1 auto; flex-flow: row nowrap; float: none; flood-color: rgb(0, 0, 0); flood-opacity: 1; font-family: WordVisi_MSFontService, Arial, Arial_EmbeddedFont, Arial_MSFontService, sans-serif; font-feature-settings: normal; font-kerning: none; font-optical-sizing: auto; font-palette: normal; font-size: 16px; font-stretch: 100%; font-style: normal; font-synthesis: weight style small-caps; font-variant: no-common-ligatures no-discretionary-ligatures no-historical-ligatures no-contextual; font-variation-settings: normal; font-weight: 400; forced-color-adjust: auto; grid-area: auto / auto / auto / auto; grid: auto-flow auto / none; height: auto; hyphenate-character: auto; hyphenate-limit-chars: auto; hyphens: manual; image-orientation: from-image; image-rendering: auto; initial-letter: normal; inline-size: auto; inset-block: auto; inset-inline: auto; isolation: auto; letter-spacing: normal; lighting-color: rgb(255, 255, 255); line-break: auto; line-height: 19.425px; list-style: outside none square; margin: 0px; marker: none; mask: none; mask-type: luminance; math-depth: 0; math-shift: normal; math-style: normal; max-height: none; max-width: none; min-height: 0px; min-width: 0px; mix-blend-mode: normal; object-fit: fill; object-position: 50% 50%; object-view-box: none; offset: none 0px auto 0deg; opacity: 1; order: 0; orphans: 2; outline: rgb(0, 0, 0) none 0px; outline-offset: 0px; overflow: visible; overflow-anchor: auto; overflow-clip-margin: 0px; overflow-wrap: break-word; overscroll-behavior-block: auto; overscroll-behavior-inline: auto; overscroll-behavior: auto; padding: 0px; page: auto; paint-order: normal; perspective: none; perspective-origin: 0px 0px; pointer-events: auto; position: static; quotes: auto; r: 0px; resize: none; rotate: none; ruby-position: over; rx: auto; ry: auto; scale: none; scroll-behavior: auto; scroll-margin-block: 0px; scroll-margin: 0px; scroll-margin-inline: 0px; scroll-padding-block: auto; scroll-padding: auto; scroll-padding-inline: auto; scroll-snap-align: none; scroll-snap-stop: normal; scroll-snap-type: none; scrollbar-gutter: auto; shape-image-threshold: 0; shape-margin: 0px; shape-outside: none; shape-rendering: auto; speak: normal; stop-color: rgb(0, 0, 0); stop-opacity: 1; stroke: none; stroke-dasharray: none; stroke-dashoffset: 0px; stroke-linecap: butt; stroke-linejoin: miter; stroke-miterlimit: 4; stroke-opacity: 1; stroke-width: 1px; tab-size: 8; table-layout: auto; text-align: left; text-align-last: auto; text-anchor: start; text-combine-upright: none; text-decoration: none solid rgb(0, 0, 0); text-decoration-skip-ink: auto; text-emphasis: none rgb(0, 0, 0); text-emphasis-position: over; text-indent: 0px; text-orientation: mixed; text-overflow: clip; text-rendering: auto; text-shadow: none; text-size-adjust: auto; text-transform: none; text-underline-offset: auto; text-underline-position: auto; touch-action: auto; transform: none; transform-box: view-box; transform-origin: 0px 0px; transform-style: flat; transition: all 0s ease 0s; translate: none; unicode-bidi: normal; user-select: text; vector-effect: none; vertical-align: baseline; view-transition-name: none; visibility: visible; border-block-end: 0px none rgb(0, 0, 0); border-block-start: 0px none rgb(0, 0, 0); border-inline-end: 0px none rgb(0, 0, 0); -webkit-border-image: none; border-inline-start: 0px none rgb(0, 0, 0); -webkit-box-align: stretch; -webkit-box-decoration-break: slice; -webkit-box-direction: normal; -webkit-box-flex: 0; -webkit-box-ordinal-group: 1; -webkit-box-orient: horizontal; -webkit-box-pack: start; -webkit-font-smoothing: auto; -webkit-highlight: none; -webkit-line-break: auto; -webkit-locale: &amp;quot;EN-US&amp;quot;; block-size: auto; margin-block: 0px; margin-inline: 0px; -webkit-mask-box-image-source: none; -webkit-mask-box-image-slice: 0 fill; -webkit-mask-box-image-width: auto; -webkit-mask-box-image-outset: 0; -webkit-mask-box-image-repeat: stretch; -webkit-mask: none 0% 0% / auto repeat border-box border-box; -webkit-mask-composite: source-over; max-block-size: none; max-inline-size: none; min-block-size: 0px; min-inline-size: 0px; padding-block: 0px; padding-inline: 0px; -webkit-print-color-adjust: economy; -webkit-rtl-ordering: logical; -webkit-ruby-position: before; -webkit-tap-highlight-color: rgba(0, 0, 0, 0); -webkit-text-combine: none; -webkit-text-decorations-in-effect: none; -webkit-text-fill-color: rgb(0, 0, 0); -webkit-text-orientation: vertical-right; -webkit-text-security: none; -webkit-text-stroke: 0px rgb(0, 0, 0); -webkit-user-drag: none; -webkit-user-modify: read-only; -webkit-writing-mode: horizontal-tb; widows: 2; width: auto; will-change: auto; word-break: normal; word-spacing: 0px; writing-mode: horizontal-tb; x: 0px; y: 0px; z-index: auto; zoom: 1;&quot; class=&quot;TextRun SCXW227290990 BCX0&quot; lang=&quot;EN-US&quot; data-contrast=&quot;auto&quot;&gt;&lt;/span&gt;&lt;span style=&quot;accent-color: auto; place-content: normal; place-items: normal; place-self: auto; alignment-baseline: auto; animation: 0s ease 0s 1 normal none running none; animation-composition: replace; app-region: none; appearance: none; aspect-ratio: auto; backdrop-filter: none; backface-visibility: visible; background: none 0% 0% / auto repeat scroll padding-box border-box rgba(0, 0, 0, 0); background-blend-mode: normal; baseline-shift: 0px; baseline-source: auto; border-image: none 100% / 1 / 0 stretch; border-color: rgb(0, 0, 0); border-collapse: separate; border-end-end-radius: 0px; border-end-start-radius: 0px; border-width: 0px; border-style: none; border-spacing: 0px; border-start-end-radius: 0px; border-start-start-radius: 0px; border-radius: 0px; inset: auto; box-shadow: none; box-sizing: content-box; break-after: auto; break-before: auto; break-inside: auto; buffered-rendering: auto; caption-side: top; caret-color: rgb(0, 0, 0); clear: none; clip: auto; clip-path: none; clip-rule: nonzero; color-interpolation: srgb; color-interpolation-filters: linearrgb; color-rendering: auto; color-scheme: normal; columns: auto; column-fill: balance; gap: normal; column-rule: 0px none rgb(0, 0, 0); column-span: none; contain: none; contain-intrinsic-block-size: none; contain-intrinsic-size: none; contain-intrinsic-inline-size: none; container: none; content: normal; content-visibility: visible; counter-increment: none; counter-reset: none; counter-set: none; cursor: text; cx: 0px; cy: 0px; d: none; direction: ltr; display: inline; dominant-baseline: auto; empty-cells: show; fill: rgb(0, 0, 0); fill-opacity: 1; fill-rule: nonzero; filter: none; flex: 0 1 auto; flex-flow: row nowrap; float: none; flood-color: rgb(0, 0, 0); flood-opacity: 1; font-family: WordVisi_MSFontService, Arial, Arial_EmbeddedFont, Arial_MSFontService, sans-serif; font-feature-settings: normal; font-kerning: none; font-optical-sizing: auto; font-palette: normal; font-size: 16px; font-stretch: 100%; font-synthesis: weight style small-caps; font-variant-ligatures: no-common-ligatures no-discretionary-ligatures no-historical-ligatures no-contextual; font-variant-numeric: normal; font-variant-east-asian: normal; font-variant-alternates: normal; font-variation-settings: normal; forced-color-adjust: auto; grid-area: auto / auto / auto / auto; grid: auto-flow auto / none; height: auto; hyphenate-character: auto; hyphenate-limit-chars: auto; hyphens: manual; image-orientation: from-image; image-rendering: auto; initial-letter: normal; inline-size: auto; inset-block: auto; inset-inline: auto; isolation: auto; lighting-color: rgb(255, 255, 255); line-break: auto; line-height: 19.425px; list-style: outside none square; margin: 0px; marker: none; mask: none; mask-type: luminance; math-depth: 0; math-shift: normal; math-style: normal; max-height: none; max-width: none; min-height: 0px; min-width: 0px; mix-blend-mode: normal; object-fit: fill; object-position: 50% 50%; object-view-box: none; offset: none 0px auto 0deg; opacity: 1; order: 0; outline: rgb(0, 0, 0) none 0px; outline-offset: 0px; overflow: visible; overflow-anchor: auto; overflow-clip-margin: 0px; overflow-wrap: break-word; overscroll-behavior-block: auto; overscroll-behavior-inline: auto; overscroll-behavior: auto; padding: 0px; page: auto; paint-order: normal; perspective: none; perspective-origin: 0px 0px; pointer-events: auto; position: static; quotes: auto; r: 0px; resize: none; rotate: none; ruby-position: over; rx: auto; ry: auto; scale: none; scroll-behavior: auto; scroll-margin-block: 0px; scroll-margin: 0px; scroll-margin-inline: 0px; scroll-padding-block: auto; scroll-padding: auto; scroll-padding-inline: auto; scroll-snap-align: none; scroll-snap-stop: normal; scroll-snap-type: none; scrollbar-gutter: auto; shape-image-threshold: 0; shape-margin: 0px; shape-outside: none; shape-rendering: auto; speak: normal; stop-color: rgb(0, 0, 0); stop-opacity: 1; stroke: none; stroke-dasharray: none; stroke-dashoffset: 0px; stroke-linecap: butt; stroke-linejoin: miter; stroke-miterlimit: 4; stroke-opacity: 1; stroke-width: 1px; tab-size: 8; table-layout: auto; text-align: left; text-align-last: auto; text-anchor: start; text-combine-upright: none; text-decoration-style: solid; text-decoration-color: rgb(0, 0, 0); text-decoration-skip-ink: auto; text-emphasis: none rgb(0, 0, 0); text-emphasis-position: over; text-orientation: mixed; text-overflow: clip; text-rendering: auto; text-shadow: none; text-size-adjust: auto; text-underline-offset: auto; text-underline-position: auto; touch-action: auto; transform: none; transform-box: view-box; transform-origin: 0px 0px; transform-style: flat; transition: all 0s ease 0s; translate: none; unicode-bidi: normal; user-select: text; vector-effect: none; vertical-align: baseline; view-transition-name: none; visibility: visible; border-block-end: 0px none rgb(0, 0, 0); border-block-start: 0px none rgb(0, 0, 0); border-inline-end: 0px none rgb(0, 0, 0); -webkit-border-image: none; border-inline-start: 0px none rgb(0, 0, 0); -webkit-box-align: stretch; -webkit-box-decoration-break: slice; -webkit-box-direction: normal; -webkit-box-flex: 0; -webkit-box-ordinal-group: 1; -webkit-box-orient: horizontal; -webkit-box-pack: start; -webkit-font-smoothing: auto; -webkit-highlight: none; -webkit-line-break: auto; -webkit-locale: &amp;quot;EN-US&amp;quot;; block-size: auto; margin-block: 0px; margin-inline: 0px; -webkit-mask-box-image-source: none; -webkit-mask-box-image-slice: 0 fill; -webkit-mask-box-image-width: auto; -webkit-mask-box-image-outset: 0; -webkit-mask-box-image-repeat: stretch; -webkit-mask: none 0% 0% / auto repeat border-box border-box; -webkit-mask-composite: source-over; max-block-size: none; max-inline-size: none; min-block-size: 0px; min-inline-size: 0px; padding-block: 0px; padding-inline: 0px; -webkit-print-color-adjust: economy; -webkit-rtl-ordering: logical; -webkit-ruby-position: before; -webkit-tap-highlight-color: rgba(0, 0, 0, 0); -webkit-text-combine: none; -webkit-text-fill-color: rgb(0, 0, 0); -webkit-text-orientation: vertical-right; -webkit-text-security: none; -webkit-text-stroke-color: rgb(0, 0, 0); -webkit-user-drag: none; -webkit-user-modify: read-only; -webkit-writing-mode: horizontal-tb; width: auto; will-change: auto; word-break: normal; writing-mode: horizontal-tb; x: 0px; y: 0px; z-index: auto; zoom: 1;&quot; class=&quot;TextRun SCXW106240725 BCX0&quot; lang=&quot;EN-US&quot; data-contrast=&quot;auto&quot;&gt;&lt;/span&gt;" style="rounded=0;whiteSpace=wrap;html=1;" vertex="1" parent="1">
          <mxGeometry x="290" y="80" width="180" height="60" as="geometry" />
        </mxCell>
        <mxCell id="BrXWf49stTwVFbA3RTFC-2" value="JWT需要包含工號&lt;br&gt;需要各團隊自行向Data service Portal訂閱數據" style="shape=hexagon;perimeter=hexagonPerimeter2;whiteSpace=wrap;html=1;fixedSize=1;" vertex="1" parent="1">
          <mxGeometry x="20" y="70" width="120" height="80" as="geometry" />
        </mxCell>
        <mxCell id="BrXWf49stTwVFbA3RTFC-3" value="Portal 佈屬&lt;br&gt;Image" style="shape=hexagon;perimeter=hexagonPerimeter2;whiteSpace=wrap;html=1;fixedSize=1;" vertex="1" parent="1">
          <mxGeometry x="20" y="415" width="120" height="80" as="geometry" />
        </mxCell>
        <mxCell id="BrXWf49stTwVFbA3RTFC-4" value="前端" style="triangle;whiteSpace=wrap;html=1;" vertex="1" parent="1">
          <mxGeometry x="170" y="415" width="60" height="80" as="geometry" />
        </mxCell>
        <mxCell id="BrXWf49stTwVFbA3RTFC-5" value="後端" style="triangle;whiteSpace=wrap;html=1;" vertex="1" parent="1">
          <mxGeometry x="170" y="505" width="60" height="80" as="geometry" />
        </mxCell>
        <mxCell id="BrXWf49stTwVFbA3RTFC-22" style="edgeStyle=orthogonalEdgeStyle;rounded=0;orthogonalLoop=1;jettySize=auto;html=1;" edge="1" parent="1" source="BrXWf49stTwVFbA3RTFC-6" target="BrXWf49stTwVFbA3RTFC-21">
          <mxGeometry relative="1" as="geometry" />
        </mxCell>
        <mxCell id="BrXWf49stTwVFbA3RTFC-6" value="&lt;div style=&quot;text-align: left;&quot;&gt;透過Airflow將數據寫入以下DB表格ww_hcm_wa_employeeinfo_g1_datafabric&lt;/div&gt;&lt;div style=&quot;text-align: left;&quot;&gt;&lt;/div&gt;" style="rounded=0;whiteSpace=wrap;html=1;" vertex="1" parent="1">
          <mxGeometry x="550" y="80" width="250" height="60" as="geometry" />
        </mxCell>
        <mxCell id="BrXWf49stTwVFbA3RTFC-20" style="edgeStyle=orthogonalEdgeStyle;rounded=0;orthogonalLoop=1;jettySize=auto;html=1;dashed=1;" edge="1" parent="1" source="BrXWf49stTwVFbA3RTFC-8" target="BrXWf49stTwVFbA3RTFC-2">
          <mxGeometry relative="1" as="geometry">
            <Array as="points">
              <mxPoint x="90" y="30" />
              <mxPoint x="90" y="30" />
            </Array>
          </mxGeometry>
        </mxCell>
        <mxCell id="BrXWf49stTwVFbA3RTFC-8" value="Portal DB" style="shape=hexagon;perimeter=hexagonPerimeter2;whiteSpace=wrap;html=1;fixedSize=1;" vertex="1" parent="1">
          <mxGeometry x="30" y="-120" width="120" height="80" as="geometry" />
        </mxCell>
        <mxCell id="BrXWf49stTwVFbA3RTFC-9" value="DB&lt;br&gt;" style="triangle;whiteSpace=wrap;html=1;" vertex="1" parent="1">
          <mxGeometry x="180" y="-120" width="60" height="80" as="geometry" />
        </mxCell>
        <mxCell id="BrXWf49stTwVFbA3RTFC-11" value="工號" style="triangle;whiteSpace=wrap;html=1;" vertex="1" parent="1">
          <mxGeometry x="190" y="70" width="60" height="80" as="geometry" />
        </mxCell>
        <mxCell id="BrXWf49stTwVFbA3RTFC-14" value="" style="edgeStyle=orthogonalEdgeStyle;rounded=0;orthogonalLoop=1;jettySize=auto;html=1;" edge="1" parent="1" source="BrXWf49stTwVFbA3RTFC-12" target="BrXWf49stTwVFbA3RTFC-13">
          <mxGeometry relative="1" as="geometry" />
        </mxCell>
        <mxCell id="BrXWf49stTwVFbA3RTFC-12" value="&lt;div style=&quot;text-align: left;&quot;&gt;建立新DB&lt;br&gt;(在我們 PostgresSQL 的環境上)&lt;/div&gt;&lt;span style=&quot;accent-color: auto; place-content: normal; place-items: normal; place-self: auto; alignment-baseline: auto; animation: 0s ease 0s 1 normal none running none; animation-composition: replace; app-region: none; appearance: none; aspect-ratio: auto; backdrop-filter: none; backface-visibility: visible; background: none 0% 0% / auto repeat scroll padding-box border-box rgba(0, 0, 0, 0); background-blend-mode: normal; baseline-shift: 0px; baseline-source: auto; border-image: none 100% / 1 / 0 stretch; border-color: rgb(0, 0, 0); border-collapse: separate; border-end-end-radius: 0px; border-end-start-radius: 0px; border-width: 0px; border-style: none; border-spacing: 0px; border-start-end-radius: 0px; border-start-start-radius: 0px; border-radius: 0px; inset: auto; box-shadow: none; box-sizing: content-box; break-after: auto; break-before: auto; break-inside: auto; buffered-rendering: auto; caption-side: top; caret-color: rgb(0, 0, 0); clear: none; clip: auto; clip-path: none; clip-rule: nonzero; color: rgb(0, 0, 0); color-interpolation: srgb; color-interpolation-filters: linearrgb; color-rendering: auto; color-scheme: normal; columns: auto; column-fill: balance; gap: normal; column-rule: 0px none rgb(0, 0, 0); column-span: none; contain: none; contain-intrinsic-block-size: none; contain-intrinsic-size: none; contain-intrinsic-inline-size: none; container: none; content: normal; content-visibility: visible; counter-increment: none; counter-reset: none; counter-set: none; cursor: text; cx: 0px; cy: 0px; d: none; direction: ltr; display: inline; dominant-baseline: auto; empty-cells: show; fill: rgb(0, 0, 0); fill-opacity: 1; fill-rule: nonzero; filter: none; flex: 0 1 auto; flex-flow: row nowrap; float: none; flood-color: rgb(0, 0, 0); flood-opacity: 1; font-family: WordVisi_MSFontService, Arial, Arial_EmbeddedFont, Arial_MSFontService, sans-serif; font-feature-settings: normal; font-kerning: none; font-optical-sizing: auto; font-palette: normal; font-size: 16px; font-stretch: 100%; font-style: normal; font-synthesis: weight style small-caps; font-variant: no-common-ligatures no-discretionary-ligatures no-historical-ligatures no-contextual; font-variation-settings: normal; font-weight: 400; forced-color-adjust: auto; grid-area: auto / auto / auto / auto; grid: auto-flow auto / none; height: auto; hyphenate-character: auto; hyphenate-limit-chars: auto; hyphens: manual; image-orientation: from-image; image-rendering: auto; initial-letter: normal; inline-size: auto; inset-block: auto; inset-inline: auto; isolation: auto; letter-spacing: normal; lighting-color: rgb(255, 255, 255); line-break: auto; line-height: 19.425px; list-style: outside none square; margin: 0px; marker: none; mask: none; mask-type: luminance; math-depth: 0; math-shift: normal; math-style: normal; max-height: none; max-width: none; min-height: 0px; min-width: 0px; mix-blend-mode: normal; object-fit: fill; object-position: 50% 50%; object-view-box: none; offset: none 0px auto 0deg; opacity: 1; order: 0; orphans: 2; outline: rgb(0, 0, 0) none 0px; outline-offset: 0px; overflow: visible; overflow-anchor: auto; overflow-clip-margin: 0px; overflow-wrap: break-word; overscroll-behavior-block: auto; overscroll-behavior-inline: auto; overscroll-behavior: auto; padding: 0px; page: auto; paint-order: normal; perspective: none; perspective-origin: 0px 0px; pointer-events: auto; position: static; quotes: auto; r: 0px; resize: none; rotate: none; ruby-position: over; rx: auto; ry: auto; scale: none; scroll-behavior: auto; scroll-margin-block: 0px; scroll-margin: 0px; scroll-margin-inline: 0px; scroll-padding-block: auto; scroll-padding: auto; scroll-padding-inline: auto; scroll-snap-align: none; scroll-snap-stop: normal; scroll-snap-type: none; scrollbar-gutter: auto; shape-image-threshold: 0; shape-margin: 0px; shape-outside: none; shape-rendering: auto; speak: normal; stop-color: rgb(0, 0, 0); stop-opacity: 1; stroke: none; stroke-dasharray: none; stroke-dashoffset: 0px; stroke-linecap: butt; stroke-linejoin: miter; stroke-miterlimit: 4; stroke-opacity: 1; stroke-width: 1px; tab-size: 8; table-layout: auto; text-align: left; text-align-last: auto; text-anchor: start; text-combine-upright: none; text-decoration: none solid rgb(0, 0, 0); text-decoration-skip-ink: auto; text-emphasis: none rgb(0, 0, 0); text-emphasis-position: over; text-indent: 0px; text-orientation: mixed; text-overflow: clip; text-rendering: auto; text-shadow: none; text-size-adjust: auto; text-transform: none; text-underline-offset: auto; text-underline-position: auto; touch-action: auto; transform: none; transform-box: view-box; transform-origin: 0px 0px; transform-style: flat; transition: all 0s ease 0s; translate: none; unicode-bidi: normal; user-select: text; vector-effect: none; vertical-align: baseline; view-transition-name: none; visibility: visible; border-block-end: 0px none rgb(0, 0, 0); border-block-start: 0px none rgb(0, 0, 0); border-inline-end: 0px none rgb(0, 0, 0); -webkit-border-image: none; border-inline-start: 0px none rgb(0, 0, 0); -webkit-box-align: stretch; -webkit-box-decoration-break: slice; -webkit-box-direction: normal; -webkit-box-flex: 0; -webkit-box-ordinal-group: 1; -webkit-box-orient: horizontal; -webkit-box-pack: start; -webkit-font-smoothing: auto; -webkit-highlight: none; -webkit-line-break: auto; -webkit-locale: &amp;quot;EN-US&amp;quot;; block-size: auto; margin-block: 0px; margin-inline: 0px; -webkit-mask-box-image-source: none; -webkit-mask-box-image-slice: 0 fill; -webkit-mask-box-image-width: auto; -webkit-mask-box-image-outset: 0; -webkit-mask-box-image-repeat: stretch; -webkit-mask: none 0% 0% / auto repeat border-box border-box; -webkit-mask-composite: source-over; max-block-size: none; max-inline-size: none; min-block-size: 0px; min-inline-size: 0px; padding-block: 0px; padding-inline: 0px; -webkit-print-color-adjust: economy; -webkit-rtl-ordering: logical; -webkit-ruby-position: before; -webkit-tap-highlight-color: rgba(0, 0, 0, 0); -webkit-text-combine: none; -webkit-text-decorations-in-effect: none; -webkit-text-fill-color: rgb(0, 0, 0); -webkit-text-orientation: vertical-right; -webkit-text-security: none; -webkit-text-stroke: 0px rgb(0, 0, 0); -webkit-user-drag: none; -webkit-user-modify: read-only; -webkit-writing-mode: horizontal-tb; widows: 2; width: auto; will-change: auto; word-break: normal; word-spacing: 0px; writing-mode: horizontal-tb; x: 0px; y: 0px; z-index: auto; zoom: 1;&quot; class=&quot;TextRun SCXW227290990 BCX0&quot; lang=&quot;EN-US&quot; data-contrast=&quot;auto&quot;&gt;&lt;/span&gt;&lt;span style=&quot;accent-color: auto; place-content: normal; place-items: normal; place-self: auto; alignment-baseline: auto; animation: 0s ease 0s 1 normal none running none; animation-composition: replace; app-region: none; appearance: none; aspect-ratio: auto; backdrop-filter: none; backface-visibility: visible; background: none 0% 0% / auto repeat scroll padding-box border-box rgba(0, 0, 0, 0); background-blend-mode: normal; baseline-shift: 0px; baseline-source: auto; border-image: none 100% / 1 / 0 stretch; border-color: rgb(0, 0, 0); border-collapse: separate; border-end-end-radius: 0px; border-end-start-radius: 0px; border-width: 0px; border-style: none; border-spacing: 0px; border-start-end-radius: 0px; border-start-start-radius: 0px; border-radius: 0px; inset: auto; box-shadow: none; box-sizing: content-box; break-after: auto; break-before: auto; break-inside: auto; buffered-rendering: auto; caption-side: top; caret-color: rgb(0, 0, 0); clear: none; clip: auto; clip-path: none; clip-rule: nonzero; color-interpolation: srgb; color-interpolation-filters: linearrgb; color-rendering: auto; color-scheme: normal; columns: auto; column-fill: balance; gap: normal; column-rule: 0px none rgb(0, 0, 0); column-span: none; contain: none; contain-intrinsic-block-size: none; contain-intrinsic-size: none; contain-intrinsic-inline-size: none; container: none; content: normal; content-visibility: visible; counter-increment: none; counter-reset: none; counter-set: none; cursor: text; cx: 0px; cy: 0px; d: none; direction: ltr; display: inline; dominant-baseline: auto; empty-cells: show; fill: rgb(0, 0, 0); fill-opacity: 1; fill-rule: nonzero; filter: none; flex: 0 1 auto; flex-flow: row nowrap; float: none; flood-color: rgb(0, 0, 0); flood-opacity: 1; font-family: WordVisi_MSFontService, Arial, Arial_EmbeddedFont, Arial_MSFontService, sans-serif; font-feature-settings: normal; font-kerning: none; font-optical-sizing: auto; font-palette: normal; font-size: 16px; font-stretch: 100%; font-synthesis: weight style small-caps; font-variant-ligatures: no-common-ligatures no-discretionary-ligatures no-historical-ligatures no-contextual; font-variant-numeric: normal; font-variant-east-asian: normal; font-variant-alternates: normal; font-variation-settings: normal; forced-color-adjust: auto; grid-area: auto / auto / auto / auto; grid: auto-flow auto / none; height: auto; hyphenate-character: auto; hyphenate-limit-chars: auto; hyphens: manual; image-orientation: from-image; image-rendering: auto; initial-letter: normal; inline-size: auto; inset-block: auto; inset-inline: auto; isolation: auto; lighting-color: rgb(255, 255, 255); line-break: auto; line-height: 19.425px; list-style: outside none square; margin: 0px; marker: none; mask: none; mask-type: luminance; math-depth: 0; math-shift: normal; math-style: normal; max-height: none; max-width: none; min-height: 0px; min-width: 0px; mix-blend-mode: normal; object-fit: fill; object-position: 50% 50%; object-view-box: none; offset: none 0px auto 0deg; opacity: 1; order: 0; outline: rgb(0, 0, 0) none 0px; outline-offset: 0px; overflow: visible; overflow-anchor: auto; overflow-clip-margin: 0px; overflow-wrap: break-word; overscroll-behavior-block: auto; overscroll-behavior-inline: auto; overscroll-behavior: auto; padding: 0px; page: auto; paint-order: normal; perspective: none; perspective-origin: 0px 0px; pointer-events: auto; position: static; quotes: auto; r: 0px; resize: none; rotate: none; ruby-position: over; rx: auto; ry: auto; scale: none; scroll-behavior: auto; scroll-margin-block: 0px; scroll-margin: 0px; scroll-margin-inline: 0px; scroll-padding-block: auto; scroll-padding: auto; scroll-padding-inline: auto; scroll-snap-align: none; scroll-snap-stop: normal; scroll-snap-type: none; scrollbar-gutter: auto; shape-image-threshold: 0; shape-margin: 0px; shape-outside: none; shape-rendering: auto; speak: normal; stop-color: rgb(0, 0, 0); stop-opacity: 1; stroke: none; stroke-dasharray: none; stroke-dashoffset: 0px; stroke-linecap: butt; stroke-linejoin: miter; stroke-miterlimit: 4; stroke-opacity: 1; stroke-width: 1px; tab-size: 8; table-layout: auto; text-align: left; text-align-last: auto; text-anchor: start; text-combine-upright: none; text-decoration-style: solid; text-decoration-color: rgb(0, 0, 0); text-decoration-skip-ink: auto; text-emphasis: none rgb(0, 0, 0); text-emphasis-position: over; text-orientation: mixed; text-overflow: clip; text-rendering: auto; text-shadow: none; text-size-adjust: auto; text-underline-offset: auto; text-underline-position: auto; touch-action: auto; transform: none; transform-box: view-box; transform-origin: 0px 0px; transform-style: flat; transition: all 0s ease 0s; translate: none; unicode-bidi: normal; user-select: text; vector-effect: none; vertical-align: baseline; view-transition-name: none; visibility: visible; border-block-end: 0px none rgb(0, 0, 0); border-block-start: 0px none rgb(0, 0, 0); border-inline-end: 0px none rgb(0, 0, 0); -webkit-border-image: none; border-inline-start: 0px none rgb(0, 0, 0); -webkit-box-align: stretch; -webkit-box-decoration-break: slice; -webkit-box-direction: normal; -webkit-box-flex: 0; -webkit-box-ordinal-group: 1; -webkit-box-orient: horizontal; -webkit-box-pack: start; -webkit-font-smoothing: auto; -webkit-highlight: none; -webkit-line-break: auto; -webkit-locale: &amp;quot;EN-US&amp;quot;; block-size: auto; margin-block: 0px; margin-inline: 0px; -webkit-mask-box-image-source: none; -webkit-mask-box-image-slice: 0 fill; -webkit-mask-box-image-width: auto; -webkit-mask-box-image-outset: 0; -webkit-mask-box-image-repeat: stretch; -webkit-mask: none 0% 0% / auto repeat border-box border-box; -webkit-mask-composite: source-over; max-block-size: none; max-inline-size: none; min-block-size: 0px; min-inline-size: 0px; padding-block: 0px; padding-inline: 0px; -webkit-print-color-adjust: economy; -webkit-rtl-ordering: logical; -webkit-ruby-position: before; -webkit-tap-highlight-color: rgba(0, 0, 0, 0); -webkit-text-combine: none; -webkit-text-fill-color: rgb(0, 0, 0); -webkit-text-orientation: vertical-right; -webkit-text-security: none; -webkit-text-stroke-color: rgb(0, 0, 0); -webkit-user-drag: none; -webkit-user-modify: read-only; -webkit-writing-mode: horizontal-tb; width: auto; will-change: auto; word-break: normal; writing-mode: horizontal-tb; x: 0px; y: 0px; z-index: auto; zoom: 1;&quot; class=&quot;TextRun SCXW106240725 BCX0&quot; lang=&quot;EN-US&quot; data-contrast=&quot;auto&quot;&gt;&lt;/span&gt;" style="rounded=0;whiteSpace=wrap;html=1;" vertex="1" parent="1">
          <mxGeometry x="280" y="-110" width="180" height="60" as="geometry" />
        </mxCell>
        <mxCell id="BrXWf49stTwVFbA3RTFC-19" style="edgeStyle=orthogonalEdgeStyle;rounded=0;orthogonalLoop=1;jettySize=auto;html=1;" edge="1" parent="1" source="BrXWf49stTwVFbA3RTFC-13" target="BrXWf49stTwVFbA3RTFC-18">
          <mxGeometry relative="1" as="geometry" />
        </mxCell>
        <mxCell id="BrXWf49stTwVFbA3RTFC-13" value="&lt;div style=&quot;text-align: left;&quot;&gt;導入 Portal 的公版 &lt;br&gt;DB schema (&lt;a href=&quot;https://wistron.sharepoint.com/sites/SmartMFG/Shared%20Documents/Forms/AllItems.aspx?id=%2Fsites%2FSmartMFG%2FShared%20Documents%2FCollaborate%20Area%2FPortalSelfServiceDoc%2FSchema%2ESql&amp;amp;viewid=414e1a4d%2D53fd%2D43fd%2Da83e%2Dafe6c1add7a9&amp;amp;parent=%2Fsites%2FSmartMFG%2FShared%20Documents%2FCollaborate%20Area%2FPortalSelfServiceDoc&quot;&gt;檔案網址&lt;/a&gt;)&lt;br&gt;&lt;/div&gt;&lt;span style=&quot;accent-color: auto; place-content: normal; place-items: normal; place-self: auto; alignment-baseline: auto; animation: 0s ease 0s 1 normal none running none; animation-composition: replace; app-region: none; appearance: none; aspect-ratio: auto; backdrop-filter: none; backface-visibility: visible; background: none 0% 0% / auto repeat scroll padding-box border-box rgba(0, 0, 0, 0); background-blend-mode: normal; baseline-shift: 0px; baseline-source: auto; border-image: none 100% / 1 / 0 stretch; border-color: rgb(0, 0, 0); border-collapse: separate; border-end-end-radius: 0px; border-end-start-radius: 0px; border-width: 0px; border-style: none; border-spacing: 0px; border-start-end-radius: 0px; border-start-start-radius: 0px; border-radius: 0px; inset: auto; box-shadow: none; box-sizing: content-box; break-after: auto; break-before: auto; break-inside: auto; buffered-rendering: auto; caption-side: top; caret-color: rgb(0, 0, 0); clear: none; clip: auto; clip-path: none; clip-rule: nonzero; color: rgb(0, 0, 0); color-interpolation: srgb; color-interpolation-filters: linearrgb; color-rendering: auto; color-scheme: normal; columns: auto; column-fill: balance; gap: normal; column-rule: 0px none rgb(0, 0, 0); column-span: none; contain: none; contain-intrinsic-block-size: none; contain-intrinsic-size: none; contain-intrinsic-inline-size: none; container: none; content: normal; content-visibility: visible; counter-increment: none; counter-reset: none; counter-set: none; cursor: text; cx: 0px; cy: 0px; d: none; direction: ltr; display: inline; dominant-baseline: auto; empty-cells: show; fill: rgb(0, 0, 0); fill-opacity: 1; fill-rule: nonzero; filter: none; flex: 0 1 auto; flex-flow: row nowrap; float: none; flood-color: rgb(0, 0, 0); flood-opacity: 1; font-family: WordVisi_MSFontService, Arial, Arial_EmbeddedFont, Arial_MSFontService, sans-serif; font-feature-settings: normal; font-kerning: none; font-optical-sizing: auto; font-palette: normal; font-size: 16px; font-stretch: 100%; font-style: normal; font-synthesis: weight style small-caps; font-variant: no-common-ligatures no-discretionary-ligatures no-historical-ligatures no-contextual; font-variation-settings: normal; font-weight: 400; forced-color-adjust: auto; grid-area: auto / auto / auto / auto; grid: auto-flow auto / none; height: auto; hyphenate-character: auto; hyphenate-limit-chars: auto; hyphens: manual; image-orientation: from-image; image-rendering: auto; initial-letter: normal; inline-size: auto; inset-block: auto; inset-inline: auto; isolation: auto; letter-spacing: normal; lighting-color: rgb(255, 255, 255); line-break: auto; line-height: 19.425px; list-style: outside none square; margin: 0px; marker: none; mask: none; mask-type: luminance; math-depth: 0; math-shift: normal; math-style: normal; max-height: none; max-width: none; min-height: 0px; min-width: 0px; mix-blend-mode: normal; object-fit: fill; object-position: 50% 50%; object-view-box: none; offset: none 0px auto 0deg; opacity: 1; order: 0; orphans: 2; outline: rgb(0, 0, 0) none 0px; outline-offset: 0px; overflow: visible; overflow-anchor: auto; overflow-clip-margin: 0px; overflow-wrap: break-word; overscroll-behavior-block: auto; overscroll-behavior-inline: auto; overscroll-behavior: auto; padding: 0px; page: auto; paint-order: normal; perspective: none; perspective-origin: 0px 0px; pointer-events: auto; position: static; quotes: auto; r: 0px; resize: none; rotate: none; ruby-position: over; rx: auto; ry: auto; scale: none; scroll-behavior: auto; scroll-margin-block: 0px; scroll-margin: 0px; scroll-margin-inline: 0px; scroll-padding-block: auto; scroll-padding: auto; scroll-padding-inline: auto; scroll-snap-align: none; scroll-snap-stop: normal; scroll-snap-type: none; scrollbar-gutter: auto; shape-image-threshold: 0; shape-margin: 0px; shape-outside: none; shape-rendering: auto; speak: normal; stop-color: rgb(0, 0, 0); stop-opacity: 1; stroke: none; stroke-dasharray: none; stroke-dashoffset: 0px; stroke-linecap: butt; stroke-linejoin: miter; stroke-miterlimit: 4; stroke-opacity: 1; stroke-width: 1px; tab-size: 8; table-layout: auto; text-align: left; text-align-last: auto; text-anchor: start; text-combine-upright: none; text-decoration: none solid rgb(0, 0, 0); text-decoration-skip-ink: auto; text-emphasis: none rgb(0, 0, 0); text-emphasis-position: over; text-indent: 0px; text-orientation: mixed; text-overflow: clip; text-rendering: auto; text-shadow: none; text-size-adjust: auto; text-transform: none; text-underline-offset: auto; text-underline-position: auto; touch-action: auto; transform: none; transform-box: view-box; transform-origin: 0px 0px; transform-style: flat; transition: all 0s ease 0s; translate: none; unicode-bidi: normal; user-select: text; vector-effect: none; vertical-align: baseline; view-transition-name: none; visibility: visible; border-block-end: 0px none rgb(0, 0, 0); border-block-start: 0px none rgb(0, 0, 0); border-inline-end: 0px none rgb(0, 0, 0); -webkit-border-image: none; border-inline-start: 0px none rgb(0, 0, 0); -webkit-box-align: stretch; -webkit-box-decoration-break: slice; -webkit-box-direction: normal; -webkit-box-flex: 0; -webkit-box-ordinal-group: 1; -webkit-box-orient: horizontal; -webkit-box-pack: start; -webkit-font-smoothing: auto; -webkit-highlight: none; -webkit-line-break: auto; -webkit-locale: &amp;quot;EN-US&amp;quot;; block-size: auto; margin-block: 0px; margin-inline: 0px; -webkit-mask-box-image-source: none; -webkit-mask-box-image-slice: 0 fill; -webkit-mask-box-image-width: auto; -webkit-mask-box-image-outset: 0; -webkit-mask-box-image-repeat: stretch; -webkit-mask: none 0% 0% / auto repeat border-box border-box; -webkit-mask-composite: source-over; max-block-size: none; max-inline-size: none; min-block-size: 0px; min-inline-size: 0px; padding-block: 0px; padding-inline: 0px; -webkit-print-color-adjust: economy; -webkit-rtl-ordering: logical; -webkit-ruby-position: before; -webkit-tap-highlight-color: rgba(0, 0, 0, 0); -webkit-text-combine: none; -webkit-text-decorations-in-effect: none; -webkit-text-fill-color: rgb(0, 0, 0); -webkit-text-orientation: vertical-right; -webkit-text-security: none; -webkit-text-stroke: 0px rgb(0, 0, 0); -webkit-user-drag: none; -webkit-user-modify: read-only; -webkit-writing-mode: horizontal-tb; widows: 2; width: auto; will-change: auto; word-break: normal; word-spacing: 0px; writing-mode: horizontal-tb; x: 0px; y: 0px; z-index: auto; zoom: 1;&quot; class=&quot;TextRun SCXW227290990 BCX0&quot; lang=&quot;EN-US&quot; data-contrast=&quot;auto&quot;&gt;&lt;/span&gt;&lt;span style=&quot;accent-color: auto; place-content: normal; place-items: normal; place-self: auto; alignment-baseline: auto; animation: 0s ease 0s 1 normal none running none; animation-composition: replace; app-region: none; appearance: none; aspect-ratio: auto; backdrop-filter: none; backface-visibility: visible; background: none 0% 0% / auto repeat scroll padding-box border-box rgba(0, 0, 0, 0); background-blend-mode: normal; baseline-shift: 0px; baseline-source: auto; border-image: none 100% / 1 / 0 stretch; border-color: rgb(0, 0, 0); border-collapse: separate; border-end-end-radius: 0px; border-end-start-radius: 0px; border-width: 0px; border-style: none; border-spacing: 0px; border-start-end-radius: 0px; border-start-start-radius: 0px; border-radius: 0px; inset: auto; box-shadow: none; box-sizing: content-box; break-after: auto; break-before: auto; break-inside: auto; buffered-rendering: auto; caption-side: top; caret-color: rgb(0, 0, 0); clear: none; clip: auto; clip-path: none; clip-rule: nonzero; color-interpolation: srgb; color-interpolation-filters: linearrgb; color-rendering: auto; color-scheme: normal; columns: auto; column-fill: balance; gap: normal; column-rule: 0px none rgb(0, 0, 0); column-span: none; contain: none; contain-intrinsic-block-size: none; contain-intrinsic-size: none; contain-intrinsic-inline-size: none; container: none; content: normal; content-visibility: visible; counter-increment: none; counter-reset: none; counter-set: none; cursor: text; cx: 0px; cy: 0px; d: none; direction: ltr; display: inline; dominant-baseline: auto; empty-cells: show; fill: rgb(0, 0, 0); fill-opacity: 1; fill-rule: nonzero; filter: none; flex: 0 1 auto; flex-flow: row nowrap; float: none; flood-color: rgb(0, 0, 0); flood-opacity: 1; font-family: WordVisi_MSFontService, Arial, Arial_EmbeddedFont, Arial_MSFontService, sans-serif; font-feature-settings: normal; font-kerning: none; font-optical-sizing: auto; font-palette: normal; font-size: 16px; font-stretch: 100%; font-synthesis: weight style small-caps; font-variant-ligatures: no-common-ligatures no-discretionary-ligatures no-historical-ligatures no-contextual; font-variant-numeric: normal; font-variant-east-asian: normal; font-variant-alternates: normal; font-variation-settings: normal; forced-color-adjust: auto; grid-area: auto / auto / auto / auto; grid: auto-flow auto / none; height: auto; hyphenate-character: auto; hyphenate-limit-chars: auto; hyphens: manual; image-orientation: from-image; image-rendering: auto; initial-letter: normal; inline-size: auto; inset-block: auto; inset-inline: auto; isolation: auto; lighting-color: rgb(255, 255, 255); line-break: auto; line-height: 19.425px; list-style: outside none square; margin: 0px; marker: none; mask: none; mask-type: luminance; math-depth: 0; math-shift: normal; math-style: normal; max-height: none; max-width: none; min-height: 0px; min-width: 0px; mix-blend-mode: normal; object-fit: fill; object-position: 50% 50%; object-view-box: none; offset: none 0px auto 0deg; opacity: 1; order: 0; outline: rgb(0, 0, 0) none 0px; outline-offset: 0px; overflow: visible; overflow-anchor: auto; overflow-clip-margin: 0px; overflow-wrap: break-word; overscroll-behavior-block: auto; overscroll-behavior-inline: auto; overscroll-behavior: auto; padding: 0px; page: auto; paint-order: normal; perspective: none; perspective-origin: 0px 0px; pointer-events: auto; position: static; quotes: auto; r: 0px; resize: none; rotate: none; ruby-position: over; rx: auto; ry: auto; scale: none; scroll-behavior: auto; scroll-margin-block: 0px; scroll-margin: 0px; scroll-margin-inline: 0px; scroll-padding-block: auto; scroll-padding: auto; scroll-padding-inline: auto; scroll-snap-align: none; scroll-snap-stop: normal; scroll-snap-type: none; scrollbar-gutter: auto; shape-image-threshold: 0; shape-margin: 0px; shape-outside: none; shape-rendering: auto; speak: normal; stop-color: rgb(0, 0, 0); stop-opacity: 1; stroke: none; stroke-dasharray: none; stroke-dashoffset: 0px; stroke-linecap: butt; stroke-linejoin: miter; stroke-miterlimit: 4; stroke-opacity: 1; stroke-width: 1px; tab-size: 8; table-layout: auto; text-align: left; text-align-last: auto; text-anchor: start; text-combine-upright: none; text-decoration-style: solid; text-decoration-color: rgb(0, 0, 0); text-decoration-skip-ink: auto; text-emphasis: none rgb(0, 0, 0); text-emphasis-position: over; text-orientation: mixed; text-overflow: clip; text-rendering: auto; text-shadow: none; text-size-adjust: auto; text-underline-offset: auto; text-underline-position: auto; touch-action: auto; transform: none; transform-box: view-box; transform-origin: 0px 0px; transform-style: flat; transition: all 0s ease 0s; translate: none; unicode-bidi: normal; user-select: text; vector-effect: none; vertical-align: baseline; view-transition-name: none; visibility: visible; border-block-end: 0px none rgb(0, 0, 0); border-block-start: 0px none rgb(0, 0, 0); border-inline-end: 0px none rgb(0, 0, 0); -webkit-border-image: none; border-inline-start: 0px none rgb(0, 0, 0); -webkit-box-align: stretch; -webkit-box-decoration-break: slice; -webkit-box-direction: normal; -webkit-box-flex: 0; -webkit-box-ordinal-group: 1; -webkit-box-orient: horizontal; -webkit-box-pack: start; -webkit-font-smoothing: auto; -webkit-highlight: none; -webkit-line-break: auto; -webkit-locale: &amp;quot;EN-US&amp;quot;; block-size: auto; margin-block: 0px; margin-inline: 0px; -webkit-mask-box-image-source: none; -webkit-mask-box-image-slice: 0 fill; -webkit-mask-box-image-width: auto; -webkit-mask-box-image-outset: 0; -webkit-mask-box-image-repeat: stretch; -webkit-mask: none 0% 0% / auto repeat border-box border-box; -webkit-mask-composite: source-over; max-block-size: none; max-inline-size: none; min-block-size: 0px; min-inline-size: 0px; padding-block: 0px; padding-inline: 0px; -webkit-print-color-adjust: economy; -webkit-rtl-ordering: logical; -webkit-ruby-position: before; -webkit-tap-highlight-color: rgba(0, 0, 0, 0); -webkit-text-combine: none; -webkit-text-fill-color: rgb(0, 0, 0); -webkit-text-orientation: vertical-right; -webkit-text-security: none; -webkit-text-stroke-color: rgb(0, 0, 0); -webkit-user-drag: none; -webkit-user-modify: read-only; -webkit-writing-mode: horizontal-tb; width: auto; will-change: auto; word-break: normal; writing-mode: horizontal-tb; x: 0px; y: 0px; z-index: auto; zoom: 1;&quot; class=&quot;TextRun SCXW106240725 BCX0&quot; lang=&quot;EN-US&quot; data-contrast=&quot;auto&quot;&gt;&lt;/span&gt;" style="rounded=0;whiteSpace=wrap;html=1;" vertex="1" parent="1">
          <mxGeometry x="540" y="-110" width="180" height="60" as="geometry" />
        </mxCell>
        <mxCell id="BrXWf49stTwVFbA3RTFC-15" value="" style="group;strokeColor=#FFD966;strokeWidth=1;fontSize=14;fillColor=#FFFBDE;gradientColor=none;" vertex="1" connectable="0" parent="1">
          <mxGeometry x="540" y="-210" width="500" height="80" as="geometry" />
        </mxCell>
        <mxCell id="BrXWf49stTwVFbA3RTFC-16" value="&lt;font style=&quot;font-size: 2px;&quot;&gt;https://wistron.sharepoint.com/sites/SmartMFG/Shared%20Documents/Forms/AllItems.aspx?id=%2Fsites%2FSmartMFG%2FShared%20Documents%2FCollaborate%20Area%2FPortalSelfServiceDoc%2FSchema%2ESql&amp;amp;viewid=414e1a4d%2D53fd%2D43fd%2Da83e%2Dafe6c1add7a9&amp;amp;parent=%2Fsites%2FSmartMFG%2FShared%20Documents%2FCollaborate%20Area%2FPortalSelfServiceDoc&lt;/font&gt;" style="whiteSpace=wrap;html=1;fontSize=13;rounded=0;spacing=0;glass=1;shadow=1;dashed=1;movable=1;resizable=1;rotatable=1;deletable=1;editable=1;connectable=1;strokeWidth=4;fillColor=#FFFBDE;strokeColor=#FFD966;gradientColor=none;align=left;" vertex="1" parent="BrXWf49stTwVFbA3RTFC-15">
          <mxGeometry width="500" height="80" as="geometry" />
        </mxCell>
        <mxCell id="BrXWf49stTwVFbA3RTFC-17" value="&lt;font style=&quot;font-size: 14px;&quot;&gt;Note&lt;/font&gt;" style="ellipse;whiteSpace=wrap;html=1;strokeColor=#FFD966;strokeWidth=1;fillColor=#FFFBDE;gradientColor=none;fontSize=14;" vertex="1" parent="BrXWf49stTwVFbA3RTFC-15">
          <mxGeometry width="30.61224489795918" height="10" as="geometry" />
        </mxCell>
        <mxCell id="BrXWf49stTwVFbA3RTFC-18" value="" style="ellipse;whiteSpace=wrap;html=1;aspect=fixed;fillColor=#000000;" vertex="1" parent="1">
          <mxGeometry x="827" y="-95" width="30" height="30" as="geometry" />
        </mxCell>
        <mxCell id="BrXWf49stTwVFbA3RTFC-21" value="" style="ellipse;whiteSpace=wrap;html=1;aspect=fixed;fillColor=#000000;" vertex="1" parent="1">
          <mxGeometry x="920" y="110" width="30" height="30" as="geometry" />
        </mxCell>
        <mxCell id="BrXWf49stTwVFbA3RTFC-23" value="common" style="triangle;whiteSpace=wrap;html=1;" vertex="1" parent="1">
          <mxGeometry x="170" y="325" width="60" height="80" as="geometry" />
        </mxCell>
        <mxCell id="BrXWf49stTwVFbA3RTFC-35" value="" style="edgeStyle=orthogonalEdgeStyle;rounded=0;orthogonalLoop=1;jettySize=auto;html=1;" edge="1" parent="1" source="BrXWf49stTwVFbA3RTFC-25" target="BrXWf49stTwVFbA3RTFC-34">
          <mxGeometry relative="1" as="geometry" />
        </mxCell>
        <mxCell id="BrXWf49stTwVFbA3RTFC-25" value="&lt;div style=&quot;text-align: left;&quot;&gt;參考Sample Portal&lt;/div&gt;releasemanagement&lt;br&gt;&amp;nbsp;的佈署 Yaml 檔&lt;br&gt;(&lt;a href=&quot;https://gitlab.wistron.com/ccoe/releasemanagement/-/tree/master/manifests/whq/arm-dev-01/esgs/esgs-common&quot;&gt;連結網址&lt;/a&gt;)" style="rounded=0;whiteSpace=wrap;html=1;" vertex="1" parent="1">
          <mxGeometry x="280" y="325" width="180" height="60" as="geometry" />
        </mxCell>
        <mxCell id="BrXWf49stTwVFbA3RTFC-44" style="edgeStyle=orthogonalEdgeStyle;rounded=0;orthogonalLoop=1;jettySize=auto;html=1;" edge="1" parent="1" source="BrXWf49stTwVFbA3RTFC-32" target="BrXWf49stTwVFbA3RTFC-39">
          <mxGeometry relative="1" as="geometry" />
        </mxCell>
        <UserObject label="&lt;div style=&quot;text-align: left;&quot;&gt;參考Sample Portal&lt;/div&gt;releasemanagement&lt;br&gt;&amp;nbsp;的佈署 Yaml 檔&lt;br&gt;(&lt;a href=&quot;https://gitlab.wistron.com/ccoe/releasemanagement/-/tree/master/manifests/whq/arm-dev-01/esgs/esgs-common&quot;&gt;連結網址&lt;/a&gt;)" link="https://gitlab.wistron.com/ccoe/releasemanagement/-/tree/master/manifests/whq/arm-dev-01/esgs/pss-frontend" id="BrXWf49stTwVFbA3RTFC-32">
          <mxCell style="rounded=0;whiteSpace=wrap;html=1;" vertex="1" parent="1">
            <mxGeometry x="270" y="435" width="180" height="60" as="geometry" />
          </mxCell>
        </UserObject>
        <mxCell id="BrXWf49stTwVFbA3RTFC-45" style="edgeStyle=orthogonalEdgeStyle;rounded=0;orthogonalLoop=1;jettySize=auto;html=1;" edge="1" parent="1" source="BrXWf49stTwVFbA3RTFC-33" target="BrXWf49stTwVFbA3RTFC-42">
          <mxGeometry relative="1" as="geometry" />
        </mxCell>
        <UserObject label="&lt;div style=&quot;text-align: left;&quot;&gt;參考Sample Portal&lt;/div&gt;releasemanagement&lt;br&gt;&amp;nbsp;的佈署 Yaml 檔&lt;br&gt;(&lt;a href=&quot;https://gitlab.wistron.com/ccoe/releasemanagement/-/tree/master/manifests/whq/arm-dev-01/esgs/esgs-common&quot;&gt;連結網址&lt;/a&gt;)" link="https://gitlab.wistron.com/ccoe/releasemanagement/-/tree/master/manifests/whq/arm-dev-01/esgs/pss-backend" id="BrXWf49stTwVFbA3RTFC-33">
          <mxCell style="rounded=0;whiteSpace=wrap;html=1;" vertex="1" parent="1">
            <mxGeometry x="280" y="540" width="180" height="60" as="geometry" />
          </mxCell>
        </UserObject>
        <mxCell id="BrXWf49stTwVFbA3RTFC-37" value="" style="edgeStyle=orthogonalEdgeStyle;rounded=0;orthogonalLoop=1;jettySize=auto;html=1;" edge="1" parent="1" source="BrXWf49stTwVFbA3RTFC-34" target="BrXWf49stTwVFbA3RTFC-36">
          <mxGeometry relative="1" as="geometry" />
        </mxCell>
        <mxCell id="BrXWf49stTwVFbA3RTFC-34" value="複製套用 releasemanagement 的Yaml&lt;div style=&quot;text-align: left;&quot;&gt;&lt;/div&gt;" style="rounded=0;whiteSpace=wrap;html=1;" vertex="1" parent="1">
          <mxGeometry x="540" y="325" width="180" height="60" as="geometry" />
        </mxCell>
        <mxCell id="BrXWf49stTwVFbA3RTFC-36" value="&lt;div style=&quot;&quot;&gt;修改 &lt;span style=&quot;accent-color: auto; place-content: normal; place-items: normal; place-self: auto; alignment-baseline: auto; animation: 0s ease 0s 1 normal none running none; animation-composition: replace; app-region: none; appearance: none; aspect-ratio: auto; backdrop-filter: none; backface-visibility: visible; background: none 0% 0% / auto repeat scroll padding-box border-box rgba(0, 0, 0, 0); background-blend-mode: normal; baseline-shift: 0px; baseline-source: auto; border-image: none 100% / 1 / 0 stretch; border-color: rgb(255, 255, 255); border-collapse: collapse; border-end-end-radius: 0px; border-end-start-radius: 0px; border-width: 0px; border-style: none; border-spacing: 0px; border-start-end-radius: 0px; border-start-start-radius: 0px; border-radius: 0px; inset: auto; box-shadow: none; box-sizing: content-box; break-after: auto; break-before: auto; break-inside: auto; buffered-rendering: auto; caption-side: top; caret-color: rgb(255, 255, 255); clear: none; clip: auto; clip-path: none; clip-rule: nonzero; color-interpolation: srgb; color-interpolation-filters: linearrgb; color-rendering: auto; color-scheme: normal; columns: auto; column-fill: balance; gap: normal; column-rule: 0px none rgb(255, 255, 255); column-span: none; contain: none; contain-intrinsic-block-size: none; contain-intrinsic-size: none; contain-intrinsic-inline-size: none; container: none; content: normal; content-visibility: visible; counter-increment: none; counter-reset: none; counter-set: none; cursor: text; cx: 0px; cy: 0px; d: none; direction: ltr; display: inline; dominant-baseline: auto; empty-cells: show; fill: rgb(0, 0, 0); fill-opacity: 1; fill-rule: nonzero; filter: none; flex: 0 1 auto; flex-flow: row nowrap; float: none; flood-color: rgb(0, 0, 0); flood-opacity: 1; font-feature-settings: normal; font-kerning: none; font-optical-sizing: auto; font-palette: normal; font-stretch: 100%; font-synthesis: weight style small-caps; font-variant-numeric: normal; font-variant-east-asian: normal; font-variant-alternates: normal; font-variation-settings: normal; forced-color-adjust: auto; grid-area: auto / auto / auto / auto; grid: auto-flow auto / none; height: auto; hyphenate-character: auto; hyphenate-limit-chars: auto; hyphens: manual; image-orientation: from-image; image-rendering: auto; initial-letter: normal; inline-size: auto; inset-block: auto; inset-inline: auto; isolation: auto; lighting-color: rgb(255, 255, 255); line-break: auto; line-height: 14.0292px; list-style: outside none disc; margin: 0px; marker: none; mask: none; mask-type: luminance; math-depth: 0; math-shift: normal; math-style: normal; max-height: none; max-width: none; min-height: 0px; min-width: 0px; mix-blend-mode: normal; object-fit: fill; object-position: 50% 50%; object-view-box: none; offset: none 0px auto 0deg; opacity: 1; order: 0; orphans: 2; outline: rgb(255, 255, 255) none 0px; outline-offset: 0px; overflow: visible; overflow-anchor: auto; overflow-clip-margin: 0px; overflow-wrap: break-word; overscroll-behavior-block: auto; overscroll-behavior-inline: auto; overscroll-behavior: auto; padding: 0px; page: auto; paint-order: normal; perspective: none; perspective-origin: 0px 0px; pointer-events: auto; position: static; quotes: auto; r: 0px; resize: none; rotate: none; ruby-position: over; rx: auto; ry: auto; scale: none; scroll-behavior: auto; scroll-margin-block: 0px; scroll-margin: 0px; scroll-margin-inline: 0px; scroll-padding-block: auto; scroll-padding: auto; scroll-padding-inline: auto; scroll-snap-align: none; scroll-snap-stop: normal; scroll-snap-type: none; scrollbar-gutter: auto; shape-image-threshold: 0; shape-margin: 0px; shape-outside: none; shape-rendering: auto; speak: normal; stop-color: rgb(0, 0, 0); stop-opacity: 1; stroke: none; stroke-dasharray: none; stroke-dashoffset: 0px; stroke-linecap: butt; stroke-linejoin: miter; stroke-miterlimit: 4; stroke-opacity: 1; stroke-width: 1px; tab-size: 8; table-layout: auto; text-align: left; text-align-last: auto; text-anchor: start; text-combine-upright: none; text-decoration-skip-ink: auto; text-emphasis: none rgb(255, 255, 255); text-emphasis-position: over; text-indent: 0px; text-orientation: mixed; text-overflow: clip; text-rendering: auto; text-shadow: none; text-size-adjust: auto; text-underline-offset: auto; text-underline-position: auto; touch-action: auto; transform: none; transform-box: view-box; transform-origin: 0px 0px; transform-style: flat; transition: all 0s ease 0s; translate: none; unicode-bidi: normal; user-select: text; vector-effect: none; vertical-align: baseline; view-transition-name: none; visibility: visible; border-block-end: 0px none rgb(255, 255, 255); border-block-start: 0px none rgb(255, 255, 255); border-inline-end: 0px none rgb(255, 255, 255); -webkit-border-image: none; border-inline-start: 0px none rgb(255, 255, 255); -webkit-box-align: stretch; -webkit-box-decoration-break: slice; -webkit-box-direction: normal; -webkit-box-flex: 0; -webkit-box-ordinal-group: 1; -webkit-box-orient: horizontal; -webkit-box-pack: start; -webkit-font-smoothing: auto; -webkit-highlight: none; -webkit-line-break: auto; -webkit-locale: &amp;quot;EN-US&amp;quot;; block-size: auto; margin-block: 0px; margin-inline: 0px; -webkit-mask-box-image-source: none; -webkit-mask-box-image-slice: 0 fill; -webkit-mask-box-image-width: auto; -webkit-mask-box-image-outset: 0; -webkit-mask-box-image-repeat: stretch; -webkit-mask: none 0% 0% / auto repeat border-box border-box; -webkit-mask-composite: source-over; max-block-size: none; max-inline-size: none; min-block-size: 0px; min-inline-size: 0px; padding-block: 0px; padding-inline: 0px; -webkit-print-color-adjust: economy; -webkit-rtl-ordering: logical; -webkit-ruby-position: before; -webkit-tap-highlight-color: rgba(0, 0, 0, 0); -webkit-text-combine: none; -webkit-text-decorations-in-effect: none; -webkit-text-fill-color: rgb(255, 255, 255); -webkit-text-orientation: vertical-right; -webkit-text-security: none; -webkit-text-stroke-color: rgb(255, 255, 255); -webkit-user-drag: none; -webkit-user-modify: read-only; -webkit-writing-mode: horizontal-tb; widows: 2; width: auto; will-change: auto; word-break: normal; writing-mode: horizontal-tb; x: 0px; y: 0px; z-index: auto; zoom: 1;&quot; class=&quot;TextRun SCXW166110438 BCX0&quot; lang=&quot;EN-US&quot; data-contrast=&quot;auto&quot;&gt;&lt;/span&gt;&lt;span style=&quot;background-color: initial;&quot;&gt;&lt;font style=&quot;&quot; face=&quot;WordVisi_MSFontService, Arial, Arial_EmbeddedFont, Arial_MSFontService, sans-serif&quot;&gt;vault.yaml&lt;/font&gt;&lt;/span&gt;&lt;/div&gt;&lt;span style=&quot;accent-color: auto; place-content: normal; place-items: normal; place-self: auto; alignment-baseline: auto; animation: 0s ease 0s 1 normal none running none; animation-composition: replace; app-region: none; appearance: none; aspect-ratio: auto; backdrop-filter: none; backface-visibility: visible; background: none 0% 0% / auto repeat scroll padding-box border-box rgba(0, 0, 0, 0); background-blend-mode: normal; baseline-shift: 0px; baseline-source: auto; border-image: none 100% / 1 / 0 stretch; border-color: rgb(0, 0, 0); border-collapse: collapse; border-end-end-radius: 0px; border-end-start-radius: 0px; border-width: 0px; border-style: none; border-spacing: 0px; border-start-end-radius: 0px; border-start-start-radius: 0px; border-radius: 0px; inset: auto; box-shadow: none; box-sizing: content-box; break-after: auto; break-before: auto; break-inside: auto; buffered-rendering: auto; caption-side: top; caret-color: rgb(0, 0, 0); clear: none; clip: auto; clip-path: none; clip-rule: nonzero; color-interpolation: srgb; color-interpolation-filters: linearrgb; color-rendering: auto; color-scheme: normal; columns: auto; column-fill: balance; gap: normal; column-rule: 0px none rgb(0, 0, 0); column-span: none; contain: none; contain-intrinsic-block-size: none; contain-intrinsic-size: none; contain-intrinsic-inline-size: none; container: none; content: normal; content-visibility: visible; counter-increment: none; counter-reset: none; counter-set: none; cursor: text; cx: 0px; cy: 0px; d: none; direction: ltr; display: inline; dominant-baseline: auto; empty-cells: show; fill: rgb(0, 0, 0); fill-opacity: 1; fill-rule: nonzero; filter: none; flex: 0 1 auto; flex-flow: row nowrap; float: none; flood-color: rgb(0, 0, 0); flood-opacity: 1; font-family: WordVisi_MSFontService, Arial, Arial_EmbeddedFont, Arial_MSFontService, sans-serif; font-feature-settings: normal; font-kerning: none; font-optical-sizing: auto; font-palette: normal; font-stretch: 100%; font-synthesis: weight style small-caps; font-variant-ligatures: no-common-ligatures no-discretionary-ligatures no-historical-ligatures no-contextual; font-variant-numeric: normal; font-variant-east-asian: normal; font-variant-alternates: normal; font-variation-settings: normal; forced-color-adjust: auto; grid-area: auto / auto / auto / auto; grid: auto-flow auto / none; height: auto; hyphenate-character: auto; hyphenate-limit-chars: auto; hyphens: manual; image-orientation: from-image; image-rendering: auto; initial-letter: normal; inline-size: auto; inset-block: auto; inset-inline: auto; isolation: auto; lighting-color: rgb(255, 255, 255); line-break: auto; line-height: 14.0292px; list-style: outside none disc; margin: 0px; marker: none; mask: none; mask-type: luminance; math-depth: 0; math-shift: normal; math-style: normal; max-height: none; max-width: none; min-height: 0px; min-width: 0px; mix-blend-mode: normal; object-fit: fill; object-position: 50% 50%; object-view-box: none; offset: none 0px auto 0deg; opacity: 1; order: 0; outline: rgb(0, 0, 0) none 0px; outline-offset: 0px; overflow: visible; overflow-anchor: auto; overflow-clip-margin: 0px; overflow-wrap: break-word; overscroll-behavior-block: auto; overscroll-behavior-inline: auto; overscroll-behavior: auto; padding: 0px; page: auto; paint-order: normal; perspective: none; perspective-origin: 0px 0px; pointer-events: auto; position: static; quotes: auto; r: 0px; resize: none; rotate: none; ruby-position: over; rx: auto; ry: auto; scale: none; scroll-behavior: auto; scroll-margin-block: 0px; scroll-margin: 0px; scroll-margin-inline: 0px; scroll-padding-block: auto; scroll-padding: auto; scroll-padding-inline: auto; scroll-snap-align: none; scroll-snap-stop: normal; scroll-snap-type: none; scrollbar-gutter: auto; shape-image-threshold: 0; shape-margin: 0px; shape-outside: none; shape-rendering: auto; speak: normal; stop-color: rgb(0, 0, 0); stop-opacity: 1; stroke: none; stroke-dasharray: none; stroke-dashoffset: 0px; stroke-linecap: butt; stroke-linejoin: miter; stroke-miterlimit: 4; stroke-opacity: 1; stroke-width: 1px; tab-size: 8; table-layout: auto; text-align-last: auto; text-anchor: start; text-combine-upright: none; text-decoration-style: solid; text-decoration-color: rgb(0, 0, 0); text-decoration-skip-ink: auto; text-emphasis: none rgb(0, 0, 0); text-emphasis-position: over; text-orientation: mixed; text-overflow: clip; text-rendering: auto; text-shadow: none; text-size-adjust: auto; text-underline-offset: auto; text-underline-position: auto; touch-action: auto; transform: none; transform-box: view-box; transform-origin: 0px 0px; transform-style: flat; transition: all 0s ease 0s; translate: none; unicode-bidi: normal; user-select: text; vector-effect: none; vertical-align: baseline; view-transition-name: none; visibility: visible; border-block-end: 0px none rgb(0, 0, 0); border-block-start: 0px none rgb(0, 0, 0); border-inline-end: 0px none rgb(0, 0, 0); -webkit-border-image: none; border-inline-start: 0px none rgb(0, 0, 0); -webkit-box-align: stretch; -webkit-box-decoration-break: slice; -webkit-box-direction: normal; -webkit-box-flex: 0; -webkit-box-ordinal-group: 1; -webkit-box-orient: horizontal; -webkit-box-pack: start; -webkit-font-smoothing: auto; -webkit-highlight: none; -webkit-line-break: auto; -webkit-locale: &amp;quot;EN-US&amp;quot;; block-size: auto; margin-block: 0px; margin-inline: 0px; -webkit-mask-box-image-source: none; -webkit-mask-box-image-slice: 0 fill; -webkit-mask-box-image-width: auto; -webkit-mask-box-image-outset: 0; -webkit-mask-box-image-repeat: stretch; -webkit-mask: none 0% 0% / auto repeat border-box border-box; -webkit-mask-composite: source-over; max-block-size: none; max-inline-size: none; min-block-size: 0px; min-inline-size: 0px; padding-block: 0px; padding-inline: 0px; -webkit-print-color-adjust: economy; -webkit-rtl-ordering: logical; -webkit-ruby-position: before; -webkit-tap-highlight-color: rgba(0, 0, 0, 0); -webkit-text-combine: none; -webkit-text-fill-color: rgb(0, 0, 0); -webkit-text-orientation: vertical-right; -webkit-text-security: none; -webkit-text-stroke-color: rgb(0, 0, 0); -webkit-user-drag: none; -webkit-user-modify: read-only; -webkit-writing-mode: horizontal-tb; width: auto; will-change: auto; word-break: normal; writing-mode: horizontal-tb; x: 0px; y: 0px; z-index: auto; zoom: 1;&quot; class=&quot;TextRun SCXW232160961 BCX0&quot; lang=&quot;EN-US&quot; data-contrast=&quot;auto&quot;&gt;&lt;/span&gt;中的&lt;br&gt;1.連結Vault secret: Harbor資訊&amp;nbsp;&lt;br&gt;2.&lt;span style=&quot;margin: 0px; padding: 0px; user-select: text; -webkit-user-drag: none; -webkit-tap-highlight-color: transparent; font-size: 8pt; background-color: rgb(255, 255, 255); line-height: 18.3458px; font-family: 微軟正黑體, 微軟正黑體_EmbeddedFont, 微軟正黑體_MSFontService, sans-serif; font-variant-ligatures: none !important;&quot; class=&quot;TextRun SCXW174601497 BCX0&quot; lang=&quot;ZH-TW&quot; data-contrast=&quot;auto&quot;&gt;&lt;/span&gt;&lt;span style=&quot;margin: 0px; padding: 0px; user-select: text; -webkit-user-drag: none; -webkit-tap-highlight-color: transparent; font-size: 8pt; background-color: rgb(255, 255, 255); line-height: 14.0292px; font-family: Arial, Arial_EmbeddedFont, Arial_MSFontService, sans-serif; font-variant-ligatures: none !important;&quot; class=&quot;TextRun SCXW174601497 BCX0&quot; lang=&quot;EN-US&quot; data-contrast=&quot;auto&quot;&gt;&lt;span style=&quot;margin: 0px; padding: 0px; user-select: text; -webkit-user-drag: none; -webkit-tap-highlight-color: transparent;&quot; class=&quot;NormalTextRun SCXW174601497 BCX0&quot;&gt;V&lt;/span&gt;&lt;span style=&quot;margin: 0px; padding: 0px; user-select: text; -webkit-user-drag: none; -webkit-tap-highlight-color: transparent;&quot; class=&quot;NormalTextRun SCXW174601497 BCX0&quot;&gt;ault&lt;/span&gt;&lt;/span&gt;&lt;span style=&quot;margin: 0px; padding: 0px; user-select: text; -webkit-user-drag: none; -webkit-tap-highlight-color: transparent; font-size: 8pt; background-color: rgb(255, 255, 255); line-height: 14.0292px; font-family: Arial, Arial_EmbeddedFont, Arial_MSFontService, sans-serif; font-variant-ligatures: none !important;&quot; class=&quot;TextRun SCXW174601497 BCX0&quot; lang=&quot;ZH-TW&quot; data-contrast=&quot;auto&quot;&gt;&lt;span style=&quot;margin: 0px; padding: 0px; user-select: text; -webkit-user-drag: none; -webkit-tap-highlight-color: transparent;&quot; class=&quot;NormalTextRun SCXW174601497 BCX0&quot;&gt; &lt;/span&gt;&lt;/span&gt;&lt;span style=&quot;margin: 0px; padding: 0px; user-select: text; -webkit-user-drag: none; -webkit-tap-highlight-color: transparent; font-size: 8pt; background-color: rgb(255, 255, 255); line-height: 14.0292px; font-family: Arial, Arial_EmbeddedFont, Arial_MSFontService, sans-serif; font-variant-ligatures: none !important;&quot; class=&quot;TextRun SCXW174601497 BCX0&quot; lang=&quot;EN-US&quot; data-contrast=&quot;auto&quot;&gt;&lt;span style=&quot;margin: 0px; padding: 0px; user-select: text; -webkit-user-drag: none; -webkit-tap-highlight-color: transparent;&quot; class=&quot;NormalTextRun SCXW174601497 BCX0&quot;&gt;secret: &lt;/span&gt;&lt;span style=&quot;margin: 0px; padding: 0px; user-select: text; -webkit-user-drag: none; -webkit-tap-highlight-color: transparent;&quot; class=&quot;NormalTextRun SCXW174601497 BCX0&quot;&gt;DB&lt;/span&gt;&lt;/span&gt;&lt;span style=&quot;margin: 0px; padding: 0px; user-select: text; -webkit-user-drag: none; -webkit-tap-highlight-color: transparent; font-size: 8pt; background-color: rgb(255, 255, 255); line-height: 18.3458px; font-family: 微軟正黑體, 微軟正黑體_EmbeddedFont, 微軟正黑體_MSFontService, sans-serif; font-variant-ligatures: none !important;&quot; class=&quot;TextRun SCXW174601497 BCX0&quot; lang=&quot;ZH-TW&quot; data-contrast=&quot;auto&quot;&gt;&lt;span style=&quot;margin: 0px; padding: 0px; user-select: text; -webkit-user-drag: none; -webkit-tap-highlight-color: transparent;&quot; class=&quot;NormalTextRun SCXW174601497 BCX0&quot;&gt;帳密&lt;/span&gt;&lt;span style=&quot;margin: 0px; padding: 0px; user-select: text; -webkit-user-drag: none; -webkit-tap-highlight-color: transparent;&quot; class=&quot;NormalTextRun SCXW174601497 BCX0&quot;&gt;資訊&lt;/span&gt;&lt;/span&gt;&lt;span style=&quot;margin: 0px; padding: 0px; user-select: text; -webkit-user-drag: none; -webkit-tap-highlight-color: transparent; font-size: 8pt; background-color: rgb(255, 255, 255); line-height: 18.3458px; font-family: 微軟正黑體, 微軟正黑體_EmbeddedFont, 微軟正黑體_MSFontService, sans-serif;&quot; data-ccp-props=&quot;{&amp;quot;134245417&amp;quot;:false,&amp;quot;335559685&amp;quot;:0,&amp;quot;335559795&amp;quot;:0}&quot; class=&quot;EOP SCXW174601497 BCX0&quot;&gt;&amp;nbsp;&lt;/span&gt;&lt;br&gt;&lt;div style=&quot;&quot;&gt;&lt;/div&gt;" style="rounded=0;whiteSpace=wrap;html=1;align=left;" vertex="1" parent="1">
          <mxGeometry x="800" y="325" width="180" height="60" as="geometry" />
        </mxCell>
        <mxCell id="BrXWf49stTwVFbA3RTFC-38" value="" style="edgeStyle=orthogonalEdgeStyle;rounded=0;orthogonalLoop=1;jettySize=auto;html=1;" edge="1" source="BrXWf49stTwVFbA3RTFC-39" target="BrXWf49stTwVFbA3RTFC-40" parent="1">
          <mxGeometry relative="1" as="geometry" />
        </mxCell>
        <mxCell id="BrXWf49stTwVFbA3RTFC-39" value="複製套用 releasemanagement 的Yaml&lt;div style=&quot;text-align: left;&quot;&gt;&lt;/div&gt;" style="rounded=0;whiteSpace=wrap;html=1;" vertex="1" parent="1">
          <mxGeometry x="550" y="480" width="180" height="60" as="geometry" />
        </mxCell>
        <mxCell id="BrXWf49stTwVFbA3RTFC-40" value="&lt;div style=&quot;&quot;&gt;&lt;/div&gt;&lt;div style=&quot;border-color: var(--border-color);&quot;&gt;修改&amp;nbsp;&lt;span style=&quot;border-color: var(--border-color); background-color: initial;&quot;&gt;&lt;font style=&quot;border-color: var(--border-color);&quot; face=&quot;WordVisi_MSFontService, Arial, Arial_EmbeddedFont, Arial_MSFontService, sans-serif&quot;&gt;configmap.yaml&lt;/font&gt;&lt;/span&gt;&lt;/div&gt;&lt;span style=&quot;border-color: rgb(0, 0, 0); font-variant-ligatures: no-common-ligatures no-discretionary-ligatures no-historical-ligatures no-contextual; font-variant-numeric: normal; font-variant-east-asian: normal; font-variant-alternates: normal; -webkit-text-stroke-color: rgb(0, 0, 0); background: none 0% 0% / auto repeat scroll padding-box border-box rgba(0, 0, 0, 0); text-decoration-style: solid; text-decoration-color: rgb(0, 0, 0); accent-color: auto; place-content: normal; place-items: normal; place-self: auto; alignment-baseline: auto; animation: 0s ease 0s 1 normal none running none; animation-composition: replace; app-region: none; appearance: none; aspect-ratio: auto; backdrop-filter: none; backface-visibility: visible; background-blend-mode: normal; baseline-shift: 0px; baseline-source: auto; border-image: none 100% / 1 / 0 stretch; border-collapse: collapse; border-end-end-radius: 0px; border-end-start-radius: 0px; border-width: 0px; border-style: none; border-spacing: 0px; border-start-end-radius: 0px; border-start-start-radius: 0px; border-radius: 0px; inset: auto; box-shadow: none; box-sizing: content-box; break-after: auto; break-before: auto; break-inside: auto; buffered-rendering: auto; caption-side: top; caret-color: rgb(0, 0, 0); clear: none; clip: auto; clip-path: none; clip-rule: nonzero; color-interpolation: srgb; color-interpolation-filters: linearrgb; color-rendering: auto; color-scheme: normal; columns: auto; column-fill: balance; gap: normal; column-rule: 0px none rgb(0, 0, 0); column-span: none; contain: none; contain-intrinsic-block-size: none; contain-intrinsic-size: none; contain-intrinsic-inline-size: none; container: none; content: normal; content-visibility: visible; counter-increment: none; counter-reset: none; counter-set: none; cursor: text; cx: 0px; cy: 0px; d: none; direction: ltr; display: inline; dominant-baseline: auto; empty-cells: show; fill: rgb(0, 0, 0); fill-opacity: 1; fill-rule: nonzero; filter: none; flex: 0 1 auto; flex-flow: row nowrap; float: none; flood-color: rgb(0, 0, 0); flood-opacity: 1; font-family: WordVisi_MSFontService, Arial, Arial_EmbeddedFont, Arial_MSFontService, sans-serif; font-feature-settings: normal; font-kerning: none; font-optical-sizing: auto; font-palette: normal; font-stretch: 100%; font-synthesis: weight style small-caps; font-variation-settings: normal; forced-color-adjust: auto; grid-area: auto / auto / auto / auto; grid: auto-flow auto / none; height: auto; hyphenate-character: auto; hyphenate-limit-chars: auto; hyphens: manual; image-orientation: from-image; image-rendering: auto; initial-letter: normal; inline-size: auto; inset-block: auto; inset-inline: auto; isolation: auto; lighting-color: rgb(255, 255, 255); line-break: auto; line-height: 14.0292px; list-style: outside none disc; margin: 0px; marker: none; mask: none; mask-type: luminance; math-depth: 0; math-shift: normal; math-style: normal; max-height: none; max-width: none; min-height: 0px; min-width: 0px; mix-blend-mode: normal; object-fit: fill; object-position: 50% 50%; object-view-box: none; offset: none 0px auto 0deg; opacity: 1; order: 0; outline: rgb(0, 0, 0) none 0px; outline-offset: 0px; overflow: visible; overflow-anchor: auto; overflow-clip-margin: 0px; overflow-wrap: break-word; overscroll-behavior-block: auto; overscroll-behavior-inline: auto; overscroll-behavior: auto; padding: 0px; page: auto; paint-order: normal; perspective: none; perspective-origin: 0px 0px; pointer-events: auto; position: static; quotes: auto; r: 0px; resize: none; rotate: none; ruby-position: over; rx: auto; ry: auto; scale: none; scroll-behavior: auto; scroll-margin-block: 0px; scroll-margin: 0px; scroll-margin-inline: 0px; scroll-padding-block: auto; scroll-padding: auto; scroll-padding-inline: auto; scroll-snap-align: none; scroll-snap-stop: normal; scroll-snap-type: none; scrollbar-gutter: auto; shape-image-threshold: 0; shape-margin: 0px; shape-outside: none; shape-rendering: auto; speak: normal; stop-color: rgb(0, 0, 0); stop-opacity: 1; stroke: none; stroke-dasharray: none; stroke-dashoffset: 0px; stroke-linecap: butt; stroke-linejoin: miter; stroke-miterlimit: 4; stroke-opacity: 1; stroke-width: 1px; tab-size: 8; table-layout: auto; text-align-last: auto; text-anchor: start; text-combine-upright: none; text-decoration-skip-ink: auto; text-emphasis: none rgb(0, 0, 0); text-emphasis-position: over; text-orientation: mixed; text-overflow: clip; text-rendering: auto; text-shadow: none; text-size-adjust: auto; text-underline-offset: auto; text-underline-position: auto; touch-action: auto; transform: none; transform-box: view-box; transform-origin: 0px 0px; transform-style: flat; transition: all 0s ease 0s; translate: none; unicode-bidi: normal; user-select: text; vector-effect: none; vertical-align: baseline; view-transition-name: none; visibility: visible; border-block-end: 0px none rgb(0, 0, 0); border-block-start: 0px none rgb(0, 0, 0); border-inline-end: 0px none rgb(0, 0, 0); -webkit-border-image: none; border-inline-start: 0px none rgb(0, 0, 0); -webkit-box-align: stretch; -webkit-box-decoration-break: slice; -webkit-box-direction: normal; -webkit-box-flex: 0; -webkit-box-ordinal-group: 1; -webkit-box-orient: horizontal; -webkit-box-pack: start; -webkit-font-smoothing: auto; -webkit-highlight: none; -webkit-line-break: auto; -webkit-locale: &amp;quot;EN-US&amp;quot;; block-size: auto; margin-block: 0px; margin-inline: 0px; -webkit-mask-box-image-source: none; -webkit-mask-box-image-slice: 0 fill; -webkit-mask-box-image-width: auto; -webkit-mask-box-image-outset: 0; -webkit-mask-box-image-repeat: stretch; -webkit-mask: none 0% 0% / auto repeat border-box border-box; -webkit-mask-composite: source-over; max-block-size: none; max-inline-size: none; min-block-size: 0px; min-inline-size: 0px; padding-block: 0px; padding-inline: 0px; -webkit-print-color-adjust: economy; -webkit-rtl-ordering: logical; -webkit-ruby-position: before; -webkit-tap-highlight-color: rgba(0, 0, 0, 0); -webkit-text-combine: none; -webkit-text-fill-color: rgb(0, 0, 0); -webkit-text-orientation: vertical-right; -webkit-text-security: none; -webkit-user-drag: none; -webkit-user-modify: read-only; -webkit-writing-mode: horizontal-tb; width: auto; will-change: auto; word-break: normal; writing-mode: horizontal-tb; x: 0px; y: 0px; z-index: auto; zoom: 1;&quot; class=&quot;TextRun SCXW232160961 BCX0&quot; lang=&quot;EN-US&quot; data-contrast=&quot;auto&quot;&gt;&lt;/span&gt;中的&lt;br style=&quot;border-color: var(--border-color);&quot;&gt;1.&lt;span style=&quot;border-color: var(--border-color); font-size: 6pt; margin: 0px; padding: 0px; user-select: text; -webkit-user-drag: none; -webkit-tap-highlight-color: transparent; text-align: justify; background-color: rgb(255, 255, 255); line-height: 14.0292px; font-family: Arial, Arial_EmbeddedFont, Arial_MSFontService, sans-serif; font-variant-ligatures: none !important;&quot; class=&quot;TextRun SCXW31992095 BCX0&quot; lang=&quot;EN-US&quot; data-contrast=&quot;auto&quot;&gt;&lt;/span&gt;&lt;span style=&quot;border-color: var(--border-color); font-size: 6pt; margin: 0px; padding: 0px; user-select: text; -webkit-user-drag: none; -webkit-tap-highlight-color: transparent; text-align: justify; background-color: rgb(255, 255, 255); line-height: 18.3458px; font-family: 微軟正黑體, 微軟正黑體_EmbeddedFont, 微軟正黑體_MSFontService, sans-serif; font-variant-ligatures: none !important;&quot; class=&quot;TextRun SCXW31992095 BCX0&quot; lang=&quot;ZH-TW&quot; data-contrast=&quot;auto&quot;&gt;&lt;span style=&quot;border-color: var(--border-color); margin: 0px; padding: 0px; user-select: text; -webkit-user-drag: none; -webkit-tap-highlight-color: transparent;&quot; class=&quot;NormalTextRun SCXW31992095 BCX0&quot;&gt;應用AAD註冊&lt;/span&gt;&lt;/span&gt;&lt;span style=&quot;border-color: var(--border-color); font-size: 6pt; margin: 0px; padding: 0px; user-select: text; -webkit-user-drag: none; -webkit-tap-highlight-color: transparent; text-align: justify; background-color: rgb(255, 255, 255); line-height: 14.0292px; font-family: Arial, Arial_EmbeddedFont, Arial_MSFontService, sans-serif; font-variant-ligatures: none !important;&quot; class=&quot;TextRun SCXW31992095 BCX0&quot; lang=&quot;EN-US&quot; data-contrast=&quot;auto&quot;&gt;&lt;span style=&quot;border-color: var(--border-color); margin: 0px; padding: 0px; user-select: text; -webkit-user-drag: none; -webkit-tap-highlight-color: transparent;&quot; class=&quot;NormalTextRun SCXW31992095 BCX0&quot;&gt;C&lt;/span&gt;&lt;span style=&quot;border-color: var(--border-color); margin: 0px; padding: 0px; user-select: text; -webkit-user-drag: none; -webkit-tap-highlight-color: transparent;&quot; class=&quot;NormalTextRun SCXW31992095 BCX0&quot;&gt;lient_ID&lt;/span&gt;&lt;/span&gt;&lt;span style=&quot;border-color: var(--border-color); font-size: 6pt; margin: 0px; padding: 0px; user-select: text; -webkit-user-drag: none; -webkit-tap-highlight-color: transparent; text-align: justify; background-color: rgb(255, 255, 255); line-height: 14.0292px; font-family: Arial, Arial_EmbeddedFont, Arial_MSFontService, sans-serif;&quot; data-ccp-props=&quot;{&amp;quot;134245417&amp;quot;:false,&amp;quot;335551550&amp;quot;:6,&amp;quot;335551620&amp;quot;:6,&amp;quot;335559685&amp;quot;:0,&amp;quot;335559795&amp;quot;:0}&quot; class=&quot;EOP SCXW31992095 BCX0&quot;&gt;&amp;nbsp;&lt;/span&gt;&lt;br&gt;&lt;div style=&quot;&quot;&gt;&lt;/div&gt;" style="rounded=0;whiteSpace=wrap;html=1;align=left;" vertex="1" parent="1">
          <mxGeometry x="810" y="480" width="180" height="60" as="geometry" />
        </mxCell>
        <mxCell id="BrXWf49stTwVFbA3RTFC-41" value="" style="edgeStyle=orthogonalEdgeStyle;rounded=0;orthogonalLoop=1;jettySize=auto;html=1;" edge="1" source="BrXWf49stTwVFbA3RTFC-42" target="BrXWf49stTwVFbA3RTFC-43" parent="1">
          <mxGeometry relative="1" as="geometry" />
        </mxCell>
        <mxCell id="BrXWf49stTwVFbA3RTFC-42" value="複製套用 releasemanagement 的Yaml&lt;div style=&quot;text-align: left;&quot;&gt;&lt;/div&gt;" style="rounded=0;whiteSpace=wrap;html=1;" vertex="1" parent="1">
          <mxGeometry x="550" y="570" width="180" height="60" as="geometry" />
        </mxCell>
        <mxCell id="BrXWf49stTwVFbA3RTFC-43" value="&lt;div style=&quot;&quot;&gt;修改 &lt;span style=&quot;accent-color: auto; place-content: normal; place-items: normal; place-self: auto; alignment-baseline: auto; animation: 0s ease 0s 1 normal none running none; animation-composition: replace; app-region: none; appearance: none; aspect-ratio: auto; backdrop-filter: none; backface-visibility: visible; background: none 0% 0% / auto repeat scroll padding-box border-box rgba(0, 0, 0, 0); background-blend-mode: normal; baseline-shift: 0px; baseline-source: auto; border-image: none 100% / 1 / 0 stretch; border-color: rgb(255, 255, 255); border-collapse: collapse; border-end-end-radius: 0px; border-end-start-radius: 0px; border-width: 0px; border-style: none; border-spacing: 0px; border-start-end-radius: 0px; border-start-start-radius: 0px; border-radius: 0px; inset: auto; box-shadow: none; box-sizing: content-box; break-after: auto; break-before: auto; break-inside: auto; buffered-rendering: auto; caption-side: top; caret-color: rgb(255, 255, 255); clear: none; clip: auto; clip-path: none; clip-rule: nonzero; color-interpolation: srgb; color-interpolation-filters: linearrgb; color-rendering: auto; color-scheme: normal; columns: auto; column-fill: balance; gap: normal; column-rule: 0px none rgb(255, 255, 255); column-span: none; contain: none; contain-intrinsic-block-size: none; contain-intrinsic-size: none; contain-intrinsic-inline-size: none; container: none; content: normal; content-visibility: visible; counter-increment: none; counter-reset: none; counter-set: none; cursor: text; cx: 0px; cy: 0px; d: none; direction: ltr; display: inline; dominant-baseline: auto; empty-cells: show; fill: rgb(0, 0, 0); fill-opacity: 1; fill-rule: nonzero; filter: none; flex: 0 1 auto; flex-flow: row nowrap; float: none; flood-color: rgb(0, 0, 0); flood-opacity: 1; font-feature-settings: normal; font-kerning: none; font-optical-sizing: auto; font-palette: normal; font-stretch: 100%; font-synthesis: weight style small-caps; font-variant-numeric: normal; font-variant-east-asian: normal; font-variant-alternates: normal; font-variation-settings: normal; forced-color-adjust: auto; grid-area: auto / auto / auto / auto; grid: auto-flow auto / none; height: auto; hyphenate-character: auto; hyphenate-limit-chars: auto; hyphens: manual; image-orientation: from-image; image-rendering: auto; initial-letter: normal; inline-size: auto; inset-block: auto; inset-inline: auto; isolation: auto; lighting-color: rgb(255, 255, 255); line-break: auto; line-height: 14.0292px; list-style: outside none disc; margin: 0px; marker: none; mask: none; mask-type: luminance; math-depth: 0; math-shift: normal; math-style: normal; max-height: none; max-width: none; min-height: 0px; min-width: 0px; mix-blend-mode: normal; object-fit: fill; object-position: 50% 50%; object-view-box: none; offset: none 0px auto 0deg; opacity: 1; order: 0; orphans: 2; outline: rgb(255, 255, 255) none 0px; outline-offset: 0px; overflow: visible; overflow-anchor: auto; overflow-clip-margin: 0px; overflow-wrap: break-word; overscroll-behavior-block: auto; overscroll-behavior-inline: auto; overscroll-behavior: auto; padding: 0px; page: auto; paint-order: normal; perspective: none; perspective-origin: 0px 0px; pointer-events: auto; position: static; quotes: auto; r: 0px; resize: none; rotate: none; ruby-position: over; rx: auto; ry: auto; scale: none; scroll-behavior: auto; scroll-margin-block: 0px; scroll-margin: 0px; scroll-margin-inline: 0px; scroll-padding-block: auto; scroll-padding: auto; scroll-padding-inline: auto; scroll-snap-align: none; scroll-snap-stop: normal; scroll-snap-type: none; scrollbar-gutter: auto; shape-image-threshold: 0; shape-margin: 0px; shape-outside: none; shape-rendering: auto; speak: normal; stop-color: rgb(0, 0, 0); stop-opacity: 1; stroke: none; stroke-dasharray: none; stroke-dashoffset: 0px; stroke-linecap: butt; stroke-linejoin: miter; stroke-miterlimit: 4; stroke-opacity: 1; stroke-width: 1px; tab-size: 8; table-layout: auto; text-align: left; text-align-last: auto; text-anchor: start; text-combine-upright: none; text-decoration-skip-ink: auto; text-emphasis: none rgb(255, 255, 255); text-emphasis-position: over; text-indent: 0px; text-orientation: mixed; text-overflow: clip; text-rendering: auto; text-shadow: none; text-size-adjust: auto; text-underline-offset: auto; text-underline-position: auto; touch-action: auto; transform: none; transform-box: view-box; transform-origin: 0px 0px; transform-style: flat; transition: all 0s ease 0s; translate: none; unicode-bidi: normal; user-select: text; vector-effect: none; vertical-align: baseline; view-transition-name: none; visibility: visible; border-block-end: 0px none rgb(255, 255, 255); border-block-start: 0px none rgb(255, 255, 255); border-inline-end: 0px none rgb(255, 255, 255); -webkit-border-image: none; border-inline-start: 0px none rgb(255, 255, 255); -webkit-box-align: stretch; -webkit-box-decoration-break: slice; -webkit-box-direction: normal; -webkit-box-flex: 0; -webkit-box-ordinal-group: 1; -webkit-box-orient: horizontal; -webkit-box-pack: start; -webkit-font-smoothing: auto; -webkit-highlight: none; -webkit-line-break: auto; -webkit-locale: &amp;quot;EN-US&amp;quot;; block-size: auto; margin-block: 0px; margin-inline: 0px; -webkit-mask-box-image-source: none; -webkit-mask-box-image-slice: 0 fill; -webkit-mask-box-image-width: auto; -webkit-mask-box-image-outset: 0; -webkit-mask-box-image-repeat: stretch; -webkit-mask: none 0% 0% / auto repeat border-box border-box; -webkit-mask-composite: source-over; max-block-size: none; max-inline-size: none; min-block-size: 0px; min-inline-size: 0px; padding-block: 0px; padding-inline: 0px; -webkit-print-color-adjust: economy; -webkit-rtl-ordering: logical; -webkit-ruby-position: before; -webkit-tap-highlight-color: rgba(0, 0, 0, 0); -webkit-text-combine: none; -webkit-text-fill-color: rgb(255, 255, 255); -webkit-text-orientation: vertical-right; -webkit-text-security: none; -webkit-text-stroke-color: rgb(255, 255, 255); -webkit-user-drag: none; -webkit-user-modify: read-only; -webkit-writing-mode: horizontal-tb; widows: 2; width: auto; will-change: auto; word-break: normal; writing-mode: horizontal-tb; x: 0px; y: 0px; z-index: auto; zoom: 1;&quot; class=&quot;TextRun SCXW166110438 BCX0&quot; lang=&quot;EN-US&quot; data-contrast=&quot;auto&quot;&gt;&lt;/span&gt;&lt;span style=&quot;accent-color: auto; place-content: normal; place-items: normal; place-self: auto; alignment-baseline: auto; animation: 0s ease 0s 1 normal none running none; animation-composition: replace; app-region: none; appearance: none; aspect-ratio: auto; backdrop-filter: none; backface-visibility: visible; background: none 0% 0% / auto repeat scroll padding-box border-box rgba(0, 0, 0, 0); background-blend-mode: normal; baseline-shift: 0px; baseline-source: auto; border-image: none 100% / 1 / 0 stretch; border-color: rgb(0, 0, 0); border-collapse: collapse; border-end-end-radius: 0px; border-end-start-radius: 0px; border-width: 0px; border-style: none; border-spacing: 0px; border-start-end-radius: 0px; border-start-start-radius: 0px; border-radius: 0px; inset: auto; box-shadow: none; box-sizing: content-box; break-after: auto; break-before: auto; break-inside: auto; buffered-rendering: auto; caption-side: top; caret-color: rgb(0, 0, 0); clear: none; clip: auto; clip-path: none; clip-rule: nonzero; color-interpolation: srgb; color-interpolation-filters: linearrgb; color-rendering: auto; color-scheme: normal; columns: auto; column-fill: balance; gap: normal; column-rule: 0px none rgb(0, 0, 0); column-span: none; contain: none; contain-intrinsic-block-size: none; contain-intrinsic-size: none; contain-intrinsic-inline-size: none; container: none; content: normal; content-visibility: visible; counter-increment: none; counter-reset: none; counter-set: none; cursor: text; cx: 0px; cy: 0px; d: none; direction: ltr; display: inline; dominant-baseline: auto; empty-cells: show; fill: rgb(0, 0, 0); fill-opacity: 1; fill-rule: nonzero; filter: none; flex: 0 1 auto; flex-flow: row nowrap; float: none; flood-color: rgb(0, 0, 0); flood-opacity: 1; font-feature-settings: normal; font-kerning: none; font-optical-sizing: auto; font-palette: normal; font-stretch: 100%; font-synthesis: weight style small-caps; font-variant-numeric: normal; font-variant-east-asian: normal; font-variant-alternates: normal; font-variation-settings: normal; forced-color-adjust: auto; grid-area: auto / auto / auto / auto; grid: auto-flow auto / none; height: auto; hyphenate-character: auto; hyphenate-limit-chars: auto; hyphens: manual; image-orientation: from-image; image-rendering: auto; initial-letter: normal; inline-size: auto; inset-block: auto; inset-inline: auto; isolation: auto; lighting-color: rgb(255, 255, 255); line-break: auto; line-height: 14.0292px; list-style: outside none disc; margin: 0px; marker: none; mask: none; mask-type: luminance; math-depth: 0; math-shift: normal; math-style: normal; max-height: none; max-width: none; min-height: 0px; min-width: 0px; mix-blend-mode: normal; object-fit: fill; object-position: 50% 50%; object-view-box: none; offset: none 0px auto 0deg; opacity: 1; order: 0; orphans: 2; outline: rgb(0, 0, 0) none 0px; outline-offset: 0px; overflow: visible; overflow-anchor: auto; overflow-clip-margin: 0px; overflow-wrap: break-word; overscroll-behavior-block: auto; overscroll-behavior-inline: auto; overscroll-behavior: auto; padding: 0px; page: auto; paint-order: normal; perspective: none; perspective-origin: 0px 0px; pointer-events: auto; position: static; quotes: auto; r: 0px; resize: none; rotate: none; ruby-position: over; rx: auto; ry: auto; scale: none; scroll-behavior: auto; scroll-margin-block: 0px; scroll-margin: 0px; scroll-margin-inline: 0px; scroll-padding-block: auto; scroll-padding: auto; scroll-padding-inline: auto; scroll-snap-align: none; scroll-snap-stop: normal; scroll-snap-type: none; scrollbar-gutter: auto; shape-image-threshold: 0; shape-margin: 0px; shape-outside: none; shape-rendering: auto; speak: normal; stop-color: rgb(0, 0, 0); stop-opacity: 1; stroke: none; stroke-dasharray: none; stroke-dashoffset: 0px; stroke-linecap: butt; stroke-linejoin: miter; stroke-miterlimit: 4; stroke-opacity: 1; stroke-width: 1px; tab-size: 8; table-layout: auto; text-align: left; text-align-last: auto; text-anchor: start; text-combine-upright: none; text-decoration-skip-ink: auto; text-emphasis: none rgb(0, 0, 0); text-emphasis-position: over; text-indent: 0px; text-orientation: mixed; text-overflow: clip; text-rendering: auto; text-shadow: none; text-size-adjust: auto; text-underline-offset: auto; text-underline-position: auto; touch-action: auto; transform: none; transform-box: view-box; transform-origin: 0px 0px; transform-style: flat; transition: all 0s ease 0s; translate: none; unicode-bidi: normal; user-select: text; vector-effect: none; vertical-align: baseline; view-transition-name: none; visibility: visible; border-block-end: 0px none rgb(0, 0, 0); border-block-start: 0px none rgb(0, 0, 0); border-inline-end: 0px none rgb(0, 0, 0); -webkit-border-image: none; border-inline-start: 0px none rgb(0, 0, 0); -webkit-box-align: stretch; -webkit-box-decoration-break: slice; -webkit-box-direction: normal; -webkit-box-flex: 0; -webkit-box-ordinal-group: 1; -webkit-box-orient: horizontal; -webkit-box-pack: start; -webkit-font-smoothing: auto; -webkit-highlight: none; -webkit-line-break: auto; -webkit-locale: &amp;quot;EN-US&amp;quot;; block-size: auto; margin-block: 0px; margin-inline: 0px; -webkit-mask-box-image-source: none; -webkit-mask-box-image-slice: 0 fill; -webkit-mask-box-image-width: auto; -webkit-mask-box-image-outset: 0; -webkit-mask-box-image-repeat: stretch; -webkit-mask: none 0% 0% / auto repeat border-box border-box; -webkit-mask-composite: source-over; max-block-size: none; max-inline-size: none; min-block-size: 0px; min-inline-size: 0px; padding-block: 0px; padding-inline: 0px; -webkit-print-color-adjust: economy; -webkit-rtl-ordering: logical; -webkit-ruby-position: before; -webkit-tap-highlight-color: rgba(0, 0, 0, 0); -webkit-text-combine: none; -webkit-text-decorations-in-effect: none; -webkit-text-fill-color: rgb(0, 0, 0); -webkit-text-orientation: vertical-right; -webkit-text-security: none; -webkit-text-stroke-color: rgb(0, 0, 0); -webkit-user-drag: none; -webkit-user-modify: read-only; -webkit-writing-mode: horizontal-tb; widows: 2; width: auto; will-change: auto; word-break: normal; writing-mode: horizontal-tb; x: 0px; y: 0px; z-index: auto; zoom: 1;&quot; class=&quot;TextRun SCXW105579798 BCX0&quot; lang=&quot;EN-US&quot; data-contrast=&quot;auto&quot;&gt;&lt;/span&gt;&lt;span style=&quot;background-color: initial;&quot;&gt;&lt;font style=&quot;&quot; face=&quot;WordVisi_MSFontService, Arial, Arial_EmbeddedFont, Arial_MSFontService, sans-serif&quot;&gt;configmap.yaml&lt;/font&gt;&lt;/span&gt;&lt;/div&gt;&lt;span style=&quot;accent-color: auto; place-content: normal; place-items: normal; place-self: auto; alignment-baseline: auto; animation: 0s ease 0s 1 normal none running none; animation-composition: replace; app-region: none; appearance: none; aspect-ratio: auto; backdrop-filter: none; backface-visibility: visible; background: none 0% 0% / auto repeat scroll padding-box border-box rgba(0, 0, 0, 0); background-blend-mode: normal; baseline-shift: 0px; baseline-source: auto; border-image: none 100% / 1 / 0 stretch; border-color: rgb(0, 0, 0); border-collapse: collapse; border-end-end-radius: 0px; border-end-start-radius: 0px; border-width: 0px; border-style: none; border-spacing: 0px; border-start-end-radius: 0px; border-start-start-radius: 0px; border-radius: 0px; inset: auto; box-shadow: none; box-sizing: content-box; break-after: auto; break-before: auto; break-inside: auto; buffered-rendering: auto; caption-side: top; caret-color: rgb(0, 0, 0); clear: none; clip: auto; clip-path: none; clip-rule: nonzero; color-interpolation: srgb; color-interpolation-filters: linearrgb; color-rendering: auto; color-scheme: normal; columns: auto; column-fill: balance; gap: normal; column-rule: 0px none rgb(0, 0, 0); column-span: none; contain: none; contain-intrinsic-block-size: none; contain-intrinsic-size: none; contain-intrinsic-inline-size: none; container: none; content: normal; content-visibility: visible; counter-increment: none; counter-reset: none; counter-set: none; cursor: text; cx: 0px; cy: 0px; d: none; direction: ltr; display: inline; dominant-baseline: auto; empty-cells: show; fill: rgb(0, 0, 0); fill-opacity: 1; fill-rule: nonzero; filter: none; flex: 0 1 auto; flex-flow: row nowrap; float: none; flood-color: rgb(0, 0, 0); flood-opacity: 1; font-family: WordVisi_MSFontService, Arial, Arial_EmbeddedFont, Arial_MSFontService, sans-serif; font-feature-settings: normal; font-kerning: none; font-optical-sizing: auto; font-palette: normal; font-stretch: 100%; font-synthesis: weight style small-caps; font-variant-ligatures: no-common-ligatures no-discretionary-ligatures no-historical-ligatures no-contextual; font-variant-numeric: normal; font-variant-east-asian: normal; font-variant-alternates: normal; font-variation-settings: normal; forced-color-adjust: auto; grid-area: auto / auto / auto / auto; grid: auto-flow auto / none; height: auto; hyphenate-character: auto; hyphenate-limit-chars: auto; hyphens: manual; image-orientation: from-image; image-rendering: auto; initial-letter: normal; inline-size: auto; inset-block: auto; inset-inline: auto; isolation: auto; lighting-color: rgb(255, 255, 255); line-break: auto; line-height: 14.0292px; list-style: outside none disc; margin: 0px; marker: none; mask: none; mask-type: luminance; math-depth: 0; math-shift: normal; math-style: normal; max-height: none; max-width: none; min-height: 0px; min-width: 0px; mix-blend-mode: normal; object-fit: fill; object-position: 50% 50%; object-view-box: none; offset: none 0px auto 0deg; opacity: 1; order: 0; outline: rgb(0, 0, 0) none 0px; outline-offset: 0px; overflow: visible; overflow-anchor: auto; overflow-clip-margin: 0px; overflow-wrap: break-word; overscroll-behavior-block: auto; overscroll-behavior-inline: auto; overscroll-behavior: auto; padding: 0px; page: auto; paint-order: normal; perspective: none; perspective-origin: 0px 0px; pointer-events: auto; position: static; quotes: auto; r: 0px; resize: none; rotate: none; ruby-position: over; rx: auto; ry: auto; scale: none; scroll-behavior: auto; scroll-margin-block: 0px; scroll-margin: 0px; scroll-margin-inline: 0px; scroll-padding-block: auto; scroll-padding: auto; scroll-padding-inline: auto; scroll-snap-align: none; scroll-snap-stop: normal; scroll-snap-type: none; scrollbar-gutter: auto; shape-image-threshold: 0; shape-margin: 0px; shape-outside: none; shape-rendering: auto; speak: normal; stop-color: rgb(0, 0, 0); stop-opacity: 1; stroke: none; stroke-dasharray: none; stroke-dashoffset: 0px; stroke-linecap: butt; stroke-linejoin: miter; stroke-miterlimit: 4; stroke-opacity: 1; stroke-width: 1px; tab-size: 8; table-layout: auto; text-align-last: auto; text-anchor: start; text-combine-upright: none; text-decoration-style: solid; text-decoration-color: rgb(0, 0, 0); text-decoration-skip-ink: auto; text-emphasis: none rgb(0, 0, 0); text-emphasis-position: over; text-orientation: mixed; text-overflow: clip; text-rendering: auto; text-shadow: none; text-size-adjust: auto; text-underline-offset: auto; text-underline-position: auto; touch-action: auto; transform: none; transform-box: view-box; transform-origin: 0px 0px; transform-style: flat; transition: all 0s ease 0s; translate: none; unicode-bidi: normal; user-select: text; vector-effect: none; vertical-align: baseline; view-transition-name: none; visibility: visible; border-block-end: 0px none rgb(0, 0, 0); border-block-start: 0px none rgb(0, 0, 0); border-inline-end: 0px none rgb(0, 0, 0); -webkit-border-image: none; border-inline-start: 0px none rgb(0, 0, 0); -webkit-box-align: stretch; -webkit-box-decoration-break: slice; -webkit-box-direction: normal; -webkit-box-flex: 0; -webkit-box-ordinal-group: 1; -webkit-box-orient: horizontal; -webkit-box-pack: start; -webkit-font-smoothing: auto; -webkit-highlight: none; -webkit-line-break: auto; -webkit-locale: &amp;quot;EN-US&amp;quot;; block-size: auto; margin-block: 0px; margin-inline: 0px; -webkit-mask-box-image-source: none; -webkit-mask-box-image-slice: 0 fill; -webkit-mask-box-image-width: auto; -webkit-mask-box-image-outset: 0; -webkit-mask-box-image-repeat: stretch; -webkit-mask: none 0% 0% / auto repeat border-box border-box; -webkit-mask-composite: source-over; max-block-size: none; max-inline-size: none; min-block-size: 0px; min-inline-size: 0px; padding-block: 0px; padding-inline: 0px; -webkit-print-color-adjust: economy; -webkit-rtl-ordering: logical; -webkit-ruby-position: before; -webkit-tap-highlight-color: rgba(0, 0, 0, 0); -webkit-text-combine: none; -webkit-text-fill-color: rgb(0, 0, 0); -webkit-text-orientation: vertical-right; -webkit-text-security: none; -webkit-text-stroke-color: rgb(0, 0, 0); -webkit-user-drag: none; -webkit-user-modify: read-only; -webkit-writing-mode: horizontal-tb; width: auto; will-change: auto; word-break: normal; writing-mode: horizontal-tb; x: 0px; y: 0px; z-index: auto; zoom: 1;&quot; class=&quot;TextRun SCXW232160961 BCX0&quot; lang=&quot;EN-US&quot; data-contrast=&quot;auto&quot;&gt;&lt;/span&gt;中的&lt;br&gt;1.&lt;span style=&quot;margin: 0px; padding: 0px; user-select: text; -webkit-user-drag: none; -webkit-tap-highlight-color: transparent; font-size: 6pt; text-align: justify; background-color: rgb(255, 255, 255); line-height: 18.3458px; font-family: 微軟正黑體, 微軟正黑體_EmbeddedFont, 微軟正黑體_MSFontService, sans-serif; font-variant-ligatures: none !important;&quot; class=&quot;TextRun SCXW31992095 BCX0&quot; lang=&quot;ZH-TW&quot; data-contrast=&quot;auto&quot;&gt;&lt;span style=&quot;margin: 0px; padding: 0px; user-select: text; -webkit-user-drag: none; -webkit-tap-highlight-color: transparent;&quot; class=&quot;NormalTextRun SCXW31992095 BCX0&quot;&gt;DB連線名稱&amp;nbsp;&lt;br&gt;&lt;/span&gt;&lt;/span&gt;&lt;span style=&quot;margin: 0px; padding: 0px; user-select: text; -webkit-user-drag: none; -webkit-tap-highlight-color: transparent; font-size: 6pt; text-align: justify; background-color: rgb(255, 255, 255); line-height: 14.0292px; font-family: Arial, Arial_EmbeddedFont, Arial_MSFontService, sans-serif; font-variant-ligatures: none !important;&quot; class=&quot;TextRun SCXW31992095 BCX0&quot; lang=&quot;EN-US&quot; data-contrast=&quot;auto&quot;&gt;&lt;/span&gt;&lt;span style=&quot;margin: 0px; padding: 0px; user-select: text; -webkit-user-drag: none; -webkit-tap-highlight-color: transparent; font-size: 6pt; text-align: justify; background-color: rgb(255, 255, 255); line-height: 14.0292px; font-family: Arial, Arial_EmbeddedFont, Arial_MSFontService, sans-serif;&quot; data-ccp-props=&quot;{&amp;quot;134245417&amp;quot;:false,&amp;quot;335551550&amp;quot;:6,&amp;quot;335551620&amp;quot;:6,&amp;quot;335559685&amp;quot;:0,&amp;quot;335559795&amp;quot;:0}&quot; class=&quot;EOP SCXW31992095 BCX0&quot;&gt;&lt;/span&gt;2.DB連線路徑&amp;nbsp;&lt;br&gt;3.其他 DB相關&lt;br&gt;&lt;div style=&quot;&quot;&gt;&lt;/div&gt;" style="rounded=0;whiteSpace=wrap;html=1;align=left;" vertex="1" parent="1">
          <mxGeometry x="811" y="570" width="180" height="60" as="geometry" />
        </mxCell>
      </root>
    </mxGraphModel>
  </diagram>
</mxfile>
